<?xml version="1.0" encoding="UTF-8" standalone="no"?>
<!-- Created with Inkscape (http://www.inkscape.org/) -->

<svg
   xmlns:dc="http://purl.org/dc/elements/1.1/"
   xmlns:cc="http://creativecommons.org/ns#"
   xmlns:rdf="http://www.w3.org/1999/02/22-rdf-syntax-ns#"
   xmlns:svg="http://www.w3.org/2000/svg"
   xmlns="http://www.w3.org/2000/svg"
   xmlns:sodipodi="http://sodipodi.sourceforge.net/DTD/sodipodi-0.dtd"
   xmlns:inkscape="http://www.inkscape.org/namespaces/inkscape"
   width="64"
   height="64"
   id="svg3222"
   version="1.1"
   inkscape:version="0.48.1 r9760"
   sodipodi:docname="phasex-icon.svg"
   inkscape:export-filename="phasex-icon.png"
   inkscape:export-xdpi="22.5"
   inkscape:export-ydpi="22.5">
  <sodipodi:namedview
     pagecolor="#ffffff"
     bordercolor="#666666"
     borderopacity="1.0"
     inkscape:pageopacity="0.0"
     inkscape:pageshadow="2"
     inkscape:zoom="0.4"
     inkscape:cx="1153.8546"
     inkscape:cy="649.20055"
     inkscape:document-units="pt"
     inkscape:current-layer="layer1"
     id="namedview3226"
     showgrid="true"
     inkscape:window-width="1920"
     inkscape:window-height="1006"
     inkscape:window-x="0"
     inkscape:window-y="24"
     inkscape:window-maximized="1"
     inkscape:snap-bbox="true"
     inkscape:bbox-paths="true"
     inkscape:snap-grids="true"
     units="px"
     inkscape:snap-bbox-edge-midpoints="true">
    <inkscape:grid
       spacingy="256px"
       spacingx="256px"
       snapvisiblegridlinesonly="true"
       enabled="true"
       visible="true"
       empspacing="2"
       id="grid3186"
       type="xygrid" />
  </sodipodi:namedview>
  <defs
     id="defs3224" />
  <metadata
     id="metadata3228">
    <rdf:RDF>
      <cc:Work
         rdf:about="">
        <dc:format>image/svg+xml</dc:format>
        <dc:type
           rdf:resource="http://purl.org/dc/dcmitype/StillImage" />
        <dc:title></dc:title>
      </cc:Work>
    </rdf:RDF>
  </metadata>
  <g
     transform="translate(0,599)"
     inkscape:label="Layer 1"
     inkscape:groupmode="layer"
     id="layer1">
    <path
       id="path4646"
       title="-0.6*(sin(x)+sin(2*x)/2+sin(3*x)/3+sin(4*x)/4+sin(5*x)/5+sin(6*x)/6+sin(7*x)/7)*sin(7*x)*x"
       d=" M 0.0 512.0 C 0.667971298108 513.198656812 1.33594259622 510.152561278 2.00391389432 511.350631662 C 2.67188519243 512.548702047 3.33985649054 508.209698071 4.00782778865 509.407182029 C 4.67579908676 510.604665986 5.34377038487 504.984785062 6.01174168297 506.181682592 C 6.67971298108 507.378580123 7.34768427919 500.496524958 8.0156555773 501.692836062 C 8.68362687541 502.889147165 9.35159817352 494.770187874 10.0195694716 495.965912551 C 10.6875407697 497.161637227 11.3555120678 487.837473519 12.0234833659 489.032611768 C 12.6914546641 490.227750018 13.3594259622 479.73634019 14.0273972603 480.930892012 C 14.6953685584 482.125443835 15.3633398565 470.510801559 16.0313111546 471.704766954 C 16.6992824527 472.89873235 17.3672537508 460.210692415 18.0352250489 461.404071383 C 18.703196347 462.597450352 19.3711676451 448.891404709 20.0391389432 450.08419725 C 20.7071102414 451.276989792 21.3750815395 436.6135954 22.0430528376 437.805801515 C 22.7110241357 438.998007629 23.3789954338 423.442867771 24.0469667319 424.634487458 C 24.71493803 425.826107145 25.3829093281 409.449428003 26.0508806262 410.640461263 C 26.7188519243 411.831494524 27.3868232224 394.707718969 28.0547945205 395.898165802 C 28.7227658187 397.088612636 29.3907371168 379.296033284 30.0587084149 380.485893691 C 30.726679713 381.675754097 31.3946510111 363.296107801 32.0626223092 364.48538178 C 32.7305936073 365.674655759 33.3985649054 346.792701803 34.0665362035 347.981389356 C 34.7345075016 349.170076908 35.4024787997 329.873161262 36.0704500978 331.061262387 C 36.738421396 332.249363512 37.4063926941 312.626971554 38.0743639922 313.814486253 C 38.7423352903 315.002000951 39.4103065884 295.145301139 40.0782778865 296.332229411 C 40.7462491846 297.519157682 41.4142204827 277.520538682 42.0821917808 278.706880526 C 42.7501630789 279.893222371 43.418134377 259.84582618 44.0861056751 261.031581598 C 44.7540769733 262.217337015 45.4220482714 242.21459063 46.0900195695 243.399759621 C 46.7579908676 244.584928611 47.4259621657 224.720076778 48.0939334638 225.904659341 C 48.7619047619 227.089241904 49.42987606 207.454883473 50.0978473581 208.638879609 C 50.7658186562 209.822875746 51.4337899543 190.510506118 52.1017612524 191.693915828 C 52.7697325506 192.877325537 53.4377038487 173.976887642 54.1056751468 175.159710925 C 54.7736464449 176.342534207 55.441617743 157.941980376 56.1095890411 159.124217231 C 56.7775603392 160.306454086 57.4455316373 142.491321124 58.1135029354 143.672971552 C 58.7814742335 144.854621981 59.4494455316 127.707621642 60.1174168297 128.888685643 C 60.7853881279 130.069749644 61.453359426 113.670376612 62.1213307241 114.850854186 C 62.7893020222 116.031331761 63.4572733203 100.455491123 64.1252446184 101.63538227 C 64.7932159165 102.815273417 65.4611872146 88.1349294948 66.1291585127 89.314234215 C 66.7971298108 90.4935389352 67.4651011089 76.7763871973 68.133072407 77.9551054905 C 68.8010437052 79.1338237836 69.4690150033 66.4429874295 70.1369863014 67.6211192956 C 70.8049575995 68.7992511618 71.4729288976 57.1930037969 72.1409001957 58.370549236 C 72.8088714938 59.5480946752 73.4768427919 49.0796103526 74.14481409 50.2565693647 C 74.8127853881 51.4335283768 75.4807566862 42.1506601044 76.1487279843 43.3270326895 C 76.8166992825 44.5034052746 77.4846705806 36.448492918 78.1526418787 37.6242790762 C 78.8206131768 38.8000652343 79.4885844749 32.0097735694 80.156555773 33.1849733005 C 80.8245270711 34.3601730316 81.4924983692 28.8653605203 82.1604696673 30.0399738244 C 82.8284409654 31.2145871285 83.4964122635 27.0402058112 84.1643835616 28.2142326883 C 84.8323548598 29.3882595654 85.5003261579 26.5532862814 86.168297456 27.7267267314 C 86.8362687541 28.9001671815 87.5042400522 27.4175661463 88.1722113503 28.5904201693 C 88.8401826484 29.7632741924 89.5081539465 29.6399907822 90.1761252446 30.8122583782 C 90.8440965427 31.9845259743 91.5120678408 33.2215113894 92.1800391389 34.3931925584 C 92.8480104371 35.5648737274 93.5159817352 38.1571400322 94.1839530333 39.3282347742 C 94.8519243314 40.4993295163 95.5198956295 44.4360343854 96.1878669276 45.6065427004 C 96.8558382257 46.7770510154 97.5238095238 52.0416113511 98.1917808219 53.2115332391 C 98.85975212 54.3814551271 99.5277234181 60.9516885569 100.195694716 62.1210240179 C 100.863666014 63.2903594789 101.531637312 71.1386525929 102.199608611 72.3074016269 C 102.867579909 73.4761506609 103.535551207 82.569652707 104.203522505 83.7378153139 C 104.871493803 84.9059779209 105.539465101 95.2068185464 106.207436399 96.3743947264 C 106.875407697 97.5419709063 107.543378995 109.00750041 108.211350294 110.174490163 C 108.879321592 111.341479916 109.54729289 123.924530369 110.215264188 125.090933695 C 110.883235486 126.257337021 111.551206784 139.906502504 112.219178082 141.072319402 C 112.88714938 142.238136301 113.555120678 156.898070436 114.223091977 158.063300908 C 114.891063275 159.22853138 115.559034573 174.840260239 116.227005871 176.004904283 C 116.894977169 177.169548328 117.562948467 193.670796753 118.230919765 194.834854371 C 118.898891063 195.998911989 119.566862361 213.324441297 120.234833659 214.487912488 C 120.902804958 215.651383679 121.570776256 233.733338696 122.238747554 234.89622346 C 122.906718852 236.059108224 123.57469015 254.827371564 124.242661448 255.989669901 C 124.910632746 257.151968237 125.578604044 276.53451973 126.246575342 277.69623164 C 126.914546641 278.85794355 127.582517939 298.781222724 128.250489237 299.942348207 C 128.918460535 301.10347369 129.586431833 321.492743239 130.254403131 322.653282295 C 130.922374429 323.813821351 131.590345727 344.593529524 132.258317025 345.753482153 C 132.926288324 346.913434782 133.594259622 368.007574692 134.26223092 369.166940893 C 134.930202218 370.326307095 135.598173516 391.658770984 136.266144814 392.817550759 C 136.934116112 393.976330533 137.60208741 415.4712571 138.270058708 416.629450447 C 138.938030007 417.787643795 139.606001305 439.369756759 140.273972603 440.52736368 C 140.941943901 441.6849706 141.609915199 463.27990677 142.277886497 464.436927264 C 142.945857795 465.593947757 143.613829093 487.128572949 144.281800391 488.285007016 C 144.949771689 489.441441083 145.617742988 510.84415236 146.285714286 512.0 C 146.953685584 513.15584764 147.621656882 534.356860432 148.28962818 535.512121645 C 148.957599478 536.667382857 149.625570776 557.599001654 150.293542074 558.753676439 C 150.961513372 559.908351225 151.629484671 580.505222653 152.297455969 581.659311012 C 152.965427267 582.81339937 153.633398565 603.012746603 154.301369863 604.166248534 C 154.969341161 605.319750466 155.637312459 625.061588033 156.305283757 626.214503538 C 156.973255055 627.367419042 157.641226354 646.594747269 158.309197652 647.747076347 C 158.97716895 648.899405424 159.645140248 667.558383849 160.313111546 668.710126499 C 160.981082844 669.86186915 161.649054142 687.901968426 162.31702544 689.05312465 C 162.984996738 690.204280873 163.652968037 707.578412803 164.320939335 708.728982599 C 164.988910633 709.879552396 165.656881931 726.544177881 166.324853229 727.694161251 C 166.992824527 728.84414462 167.660795825 744.759359469 168.328767123 745.908756411 C 168.996738421 747.058153354 169.66470972 762.187752012 170.332681018 763.336562527 C 171.000652316 764.485373043 171.668623614 778.796890467 172.336594912 779.945114556 C 173.00456621 781.093338644 173.672537508 794.558070659 174.340508806 795.70570832 C 175.008480104 796.853345982 175.676451402 809.446348599 176.344422701 810.593399833 C 177.012393999 811.740451068 177.680365297 823.440519367 178.348336595 824.586984174 C 179.016307893 825.733448982 179.684279191 836.523076275 180.352250489 837.668954655 C 181.020221787 838.814833036 181.688193085 848.680151138 182.356164384 849.825443091 C 183.024135682 850.970735045 183.69210698 859.901436591 184.360078278 861.046142117 C 185.028049576 862.190847644 185.696020874 870.180091478 186.363992172 871.324210577 C 187.03196347 872.468329677 187.699934768 879.512630426 188.367906067 880.656163099 C 189.035877365 881.799695771 189.703848663 887.89879881 190.371819961 889.041745055 C 191.039791259 890.184691301 191.707762557 895.341434346 192.375733855 896.483794164 C 193.043705153 897.626153983 193.711676451 901.846316665 194.37964775 902.988090057 C 195.047619048 904.129863448 195.715590346 907.42200621 196.383561644 908.563193174 C 197.051532942 909.704380139 197.71950424 912.079673871 198.387475538 913.220274408 C 199.055446836 914.360874946 199.723418134 915.832922802 200.391389432 916.972936913 C 201.059360731 918.112951023 201.727332029 918.697603859 202.395303327 919.837031542 C 203.063274625 920.976459226 203.731245923 920.691626121 204.399217221 921.830467377 C 205.067188519 922.969308633 205.735159817 921.834763957 206.403131115 922.973018786 C 207.071102414 924.111273616 207.739073712 922.148462075 208.40704501 923.286130477 C 209.075016308 924.42379888 209.742987606 921.655639969 210.410958904 922.792721945 C 211.078930202 923.92980392 211.7469015 920.380497159 212.414872798 921.516992708 C 213.082844097 922.653488256 213.750815395 918.348320562 214.418786693 919.484229683 C 215.086757991 920.620138805 215.754729289 915.58529529 216.422700587 916.720617984 C 217.090671885 917.855940679 217.758643183 912.11832011 218.426614481 913.253056378 C 219.09458578 914.387792645 219.762557078 907.974828738 220.430528376 909.108978578 C 221.098499674 910.243128418 221.766470972 903.182618048 222.43444227 904.316181461 C 223.102413568 905.449744874 223.770384866 897.769684235 224.438356164 898.902661221 C 225.106327462 900.035638207 225.774298761 891.764067837 226.442270059 892.896458396 C 227.110241357 894.028848955 227.778212655 885.193708466 228.446183953 886.325512598 C 229.114155251 887.45731673 229.782126549 878.086309991 230.450097847 879.217527696 C 231.118069145 880.348745401 231.786040444 870.469216811 232.454011742 871.59984809 C 233.12198304 872.730479368 233.789954338 862.369301764 234.457925636 863.499346615 C 235.125896934 864.629391466 235.793868232 853.812866102 236.46183953 854.942324527 C 237.129810828 856.071782951 237.797782127 844.825551884 238.465753425 845.954423881 C 239.133724723 847.083295878 239.801696021 835.43226698 240.469667319 836.56055255 C 241.137638617 837.68883812 241.805609915 825.657122848 242.473581213 826.784821991 C 243.141552511 827.912521134 243.80952381 815.52338506 244.477495108 816.650497776 C 245.145466406 817.777610492 245.813437704 805.053436527 246.481409002 806.179962816 C 247.1493803 807.306489105 247.817351598 794.268753208 248.485322896 795.394693071 C 249.153294194 796.520632933 249.821265492 783.18989204 250.489236791 784.315245475 C 251.157208089 785.44059891 251.825179387 771.836490696 252.493150685 772.961257704 C 253.161121983 774.086024712 253.829093281 760.227278729 254.497064579 761.35145931 C 255.165035877 762.475639891 255.833007175 748.380099523 256.500978474 749.503693677 C 257.168949772 750.627287831 257.83692107 736.311942455 258.504892368 737.434950182 C 259.172863666 738.557957909 259.840834964 724.038984547 260.508806262 725.161405847 C 261.17677756 726.283827147 261.844748858 711.57664086 262.512720157 712.698475733 C 263.180691455 713.820310606 263.848662753 698.939622805 264.516634051 700.060871251 C 265.184605349 701.182119697 265.852576647 686.142003491 266.520547945 687.26266551 C 267.188519243 688.383327529 267.856490541 673.197289211 268.52446184 674.317364803 C 269.192433138 675.437440395 269.860404436 660.118496102 270.528375734 661.237985267 C 271.196347032 662.357474432 271.86431833 646.91823101 272.532289628 648.037133748 C 273.200260926 649.156036486 273.868232224 633.60877556 274.536203523 634.727091871 C 275.204174821 635.845408182 275.872146119 620.202172424 276.540117417 621.319902308 C 277.208088715 622.437632192 277.876060013 606.71031278 278.544031311 607.827456237 C 279.212002609 608.944599694 279.879973907 593.145023956 280.547945205 594.261580986 C 281.215916504 595.378138016 281.883887802 579.518156268 282.5518591 580.634126871 C 283.219830398 581.750097474 283.887801696 565.841668071 284.555772994 566.957052247 C 285.223744292 568.072436423 285.89171559 552.127708108 286.559686888 553.242505856 C 287.227658187 554.357303605 287.895629485 538.388694216 288.563600783 539.502905538 C 289.231572081 540.617116859 289.899543379 524.637387556 290.567514677 525.751012451 C 291.235485975 526.864637346 291.903457273 510.886961532 292.571428571 512.0 C 293.23939987 513.113038468 293.907371168 497.151064646 294.575342466 498.263516687 C 295.243313764 499.375968728 295.911285062 483.443876591 296.57925636 484.555742205 C 297.247227658 485.667607819 297.915198956 469.780156951 298.583170254 470.891436138 C 299.251141553 472.002715325 299.919112851 456.175285927 300.587084149 457.285978687 C 301.255055447 458.396671447 301.923026745 442.645296628 302.590998043 443.755402961 C 303.258969341 444.865509294 303.926940639 429.206898481 304.594911937 430.316418387 C 305.262883235 431.425938293 305.930854534 415.877491453 306.598825832 416.986424932 C 307.26679713 418.09535841 307.934768428 402.675170818 308.602739726 403.78351787 C 309.270711024 404.891864922 309.938682322 389.618722306 310.60665362 390.72648293 C 311.274624918 391.834243555 311.942596217 376.727607544 312.610567515 377.834781742 C 313.278538813 378.94195594 313.946510111 364.021939801 314.614481409 365.128527572 C 315.282452707 366.235115342 315.950424005 351.522450094 316.618395303 352.628451438 C 317.286366601 353.734452781 317.9543379 339.250443851 318.622309198 340.355858768 C 319.290280496 341.461273684 319.958251794 327.227748348 320.626223092 328.332576837 C 321.29419439 329.437405327 321.962165688 315.476651258 322.630136986 316.580893321 C 323.298108284 317.685135384 323.966079583 304.019830708 324.634050881 305.123486344 C 325.302022179 306.227141979 325.969993477 292.880277299 326.637964775 293.983346508 C 327.305936073 295.086415716 327.973907371 282.081208648 328.641878669 283.18369143 C 329.309849967 284.286174211 329.977821265 271.64597703 330.645792564 272.747873385 C 331.313763862 273.84976974 331.98173516 261.597970787 332.649706458 262.699280715 C 333.317677756 263.800590643 333.985649054 251.960510209 334.653620352 253.06123371 C 335.32159165 254.16195721 335.989562948 242.756738644 336.657534247 243.856875717 C 337.325505545 244.957012791 337.993476843 234.009509634 338.661448141 235.10906028 C 339.329419439 236.208610927 339.997390737 225.741270905 340.665362035 226.840235124 C 341.333333333 227.939199344 342.001304631 217.973946068 342.66927593 219.072323861 C 343.337247228 220.170701653 344.005218526 210.728814917 344.673189824 211.826606282 C 345.341161122 212.924397648 346.00913242 204.026393206 346.677103718 205.123598145 C 347.345075016 206.220803083 348.013046314 197.886312817 348.681017613 198.982931329 C 349.348988911 200.07954984 350.016960209 192.327203213 350.684931507 193.423235298 C 351.352902805 194.519267383 352.020874103 187.366575073 352.688845401 188.462020731 C 353.356816699 189.557466389 354.024787997 183.020706989 354.692759295 184.11556622 C 355.360730594 185.21042545 356.028701892 179.304536089 356.69667319 180.398808893 C 357.364644488 181.493081696 358.032615786 176.23155342 358.700587084 177.325239796 C 359.368558382 178.418926173 360.03652968 173.813704893 360.704500978 174.906804842 C 361.372472277 175.999904792 362.040443575 172.061298558 362.708414873 173.15381208 C 363.376386171 174.246325603 364.044357469 170.982918924 364.712328767 172.074846019 C 365.380300065 173.166773115 366.048271363 170.585349003 366.716242661 171.676689671 C 367.38421396 172.76803034 368.052185258 170.873500688 368.720156556 171.96425493 C 369.388127854 173.055009171 370.056099152 171.850354031 370.72407045 172.940521845 C 371.392041748 174.03068966 372.060013046 173.51690591 372.727984344 174.606487297 C 373.395955643 175.696068684 374.063926941 175.872128525 374.731898239 176.961123485 C 375.399869537 178.050118446 376.067840835 178.91293808 376.735812133 180.001346614 C 377.403783431 181.089755147 378.071754729 182.634173942 378.739726027 183.721996049 C 379.407697326 184.809818155 380.075668624 187.028588493 380.743639922 188.115824173 C 381.41161122 189.203059852 382.079582518 192.086847828 382.747553816 193.173497081 C 383.415525114 194.260146333 384.083496412 197.797543356 384.75146771 198.883606181 C 385.419439008 199.969669007 386.087410307 204.147214304 386.755381605 205.232690703 C 387.423352903 206.318167101 388.091324201 211.120381044 388.759295499 212.205271015 C 389.427266797 213.290160987 390.095238095 218.699589075 390.763209393 219.783892619 C 391.431180691 220.868196164 392.09915199 226.865463452 392.767123288 227.949180569 C 393.435094586 229.032897686 394.103065884 235.596773338 394.771037182 236.679904028 C 395.43900848 237.763034719 396.106979778 244.870506337 396.774951076 245.9530506 C 397.442922374 247.035594863 398.110893673 254.66195215 398.778864971 255.743909986 C 399.446836269 256.825867823 400.114807567 264.944795083 400.782778865 266.026166492 C 401.450750163 267.107537901 402.118721461 275.691214833 402.786692759 276.771999815 C 403.454664057 277.852784797 404.122635356 286.871994961 404.790606654 287.952193516 C 405.458577952 289.032392071 406.12654925 298.456638391 406.794520548 299.536250519 C 407.462491846 300.615862647 408.130463144 310.413489227 408.798434442 311.492514928 C 409.46640574 312.571540629 410.134377038 322.709860165 410.802348337 323.788299439 C 411.470319635 324.866738713 412.138290933 335.31216471 412.806262231 336.390017557 C 413.474233529 337.467870404 414.142204827 348.186053413 414.810176125 349.263319834 C 415.478147423 350.340586254 416.146118721 361.296553291 416.81409002 362.373233284 C 417.482061318 363.449913277 418.150032616 374.608209598 418.818003914 375.684303164 C 419.485975212 376.76039673 420.15394651 388.085229104 420.821917808 389.160736243 C 421.489889106 390.236243382 422.157860404 401.691624015 422.825831703 402.766544727 C 423.493803001 403.841465439 424.161774299 415.391355693 424.829745597 416.465689979 C 425.497716895 417.540024264 426.165688193 429.148477334 426.833659491 430.222225192 C 427.501630789 431.29597305 428.169602087 442.927274759 428.837573386 444.00043619 C 429.505544684 445.073597622 430.173515982 456.692404538 430.84148728 457.764979542 C 431.509458578 458.837554546 432.177429876 470.409028626 432.845401174 471.481017203 C 433.513372472 472.55300578 434.18134377 484.04294479 434.849315068 485.11434694 C 435.517286367 486.18574909 436.185257665 497.560712083 436.853228963 498.631527806 C 437.521200261 499.702343529 438.189171559 510.929770704 438.857142857 512.0 C 439.525114155 513.070229296 440.193085453 524.1185556 440.861056751 525.188198469 C 441.52902805 526.257841338 442.196999348 537.096603225 442.864970646 538.165659667 C 443.532941944 539.234716109 444.200913242 549.834650934 444.86888454 550.903120949 C 445.536855838 551.971590964 446.204827136 562.304728514 446.872798434 563.372612102 C 447.540769733 564.44049569 448.208741031 574.48024146 448.876712329 575.547538621 C 449.544683627 576.614835782 450.212654925 586.336045605 450.880626223 587.402756339 C 451.548597521 588.469467073 452.216568819 597.848512842 452.884540117 598.914637149 C 453.552511416 599.980761456 454.220482714 608.995587682 454.888454012 610.061125561 C 455.55642531 611.126663441 456.224396608 619.756834484 456.892367906 620.821785937 C 457.560339204 621.88673739 458.228310502 630.113475275 458.8962818 631.1778403 C 459.564253098 632.242205326 460.232224397 640.048418088 460.900195695 641.112196687 C 461.568166993 642.175975286 462.236138291 649.546275888 462.904109589 650.60946806 C 463.572080887 651.672660232 464.240052185 658.593376142 464.908023483 659.655981887 C 465.575994781 660.718587632 466.24396608 667.177761207 466.911937378 668.239780525 C 467.579908676 669.301799843 468.247879974 675.28917975 468.915851272 676.350612641 C 469.58382257 677.412045532 470.251793868 682.919069464 470.919765166 683.979915928 C 471.587736464 685.040762392 472.255707763 690.060531415 472.923679061 691.120791452 C 473.591650359 692.181051489 474.259621657 696.708296402 474.927592955 697.767970011 C 475.595564253 698.827643621 476.263535551 702.858683747 476.931506849 703.917770929 C 477.599478147 704.976858112 478.267449446 708.509553009 478.935420744 709.568053765 C 479.603392042 710.626554521 480.27136334 713.660249118 480.939334638 714.718163447 C 481.607305936 715.776077776 482.275277234 718.311541489 482.943248532 719.368869391 C 483.61121983 720.426197293 484.279191129 722.465557698 484.947162427 723.522299173 C 485.615133725 724.579040647 486.283105023 726.125712332 486.951076321 727.18186738 C 487.619047619 728.238022428 488.287018917 729.296631644 488.954990215 730.352200265 C 489.622961513 731.407768886 490.290932811 731.984074656 490.95890411 733.039056849 C 491.626875408 734.094039043 492.294846706 734.194851384 492.962818004 735.24924715 C 493.630789302 736.303642917 494.2987606 735.936738844 494.966731898 736.990548184 C 495.634703196 738.044357523 496.302674494 737.218395514 496.970645793 738.271618426 C 497.638617091 739.324841339 498.306588389 738.049274911 498.974559687 739.101911397 C 499.642530985 740.154547882 500.310502283 738.439538953 500.978473581 739.491589012 C 501.646444879 740.543639071 502.314416177 738.399971744 502.982387476 739.451435375 C 503.650358774 740.502899007 504.318330072 737.941894401 504.98630137 738.992771605 C 505.654272668 740.04364881 506.322243966 737.077081549 506.990215264 738.127372327 C 507.658186562 739.177663105 508.32615786 735.817680041 508.994129159 736.867384391 C 509.662100457 737.917088742 510.330071755 734.176130451 510.998043053 735.225248375 C 511.666014351 736.274366299 512.333985649 732.165091872 513.001956947 733.213623369 C 513.669928245 734.262154865 514.337899543 729.79737046 515.005870841 730.84531553 C 515.67384214 731.893260599 516.341813438 727.085852186 517.009784736 728.133210828 C 517.677756034 729.180569471 518.345727332 724.043440163 519.01369863 725.090212379 C 519.681669928 726.136984594 520.349641226 720.682996904 521.017612524 721.729182692 C 521.685583823 722.775368481 522.353555121 717.017291783 523.021526419 718.062891145 C 523.689497717 719.108490506 524.357469015 713.058953972 525.025440313 714.103966907 C 525.693411611 715.148979842 526.361382909 708.82043101 527.029354207 709.864857517 C 527.697325506 710.909284025 528.365296804 704.313953165 529.033268102 705.357793245 C 529.7012394 706.401633326 530.369210698 699.551503674 531.037181996 700.594757328 C 531.705153294 701.638010981 532.373124592 694.544794879 533.04109589 695.587462106 C 533.709067189 696.630129332 534.377038487 689.305250255 535.045009785 690.347331055 C 535.712981083 691.389411854 536.380952381 683.843992252 537.048923679 684.885486624 C 537.716894977 685.926980997 538.384866275 678.171835829 539.052837573 679.212743775 C 539.720808871 680.25365172 540.38878017 672.299287527 541.056751468 673.339609045 C 541.724722766 674.379930563 542.392694064 666.236549832 543.060665362 667.276284923 C 543.72863666 668.316020014 544.396607958 659.993530611 545.064579256 661.032679276 C 545.732550554 662.07182794 546.400521853 653.57985729 547.068493151 654.618419527 C 547.736464449 655.656981764 548.404435747 647.004895439 549.072407045 648.04287125 C 549.740378343 649.08084706 550.408349641 640.277771412 551.076320939 641.315160796 C 551.744292237 642.352550179 552.412263536 633.407398604 553.080234834 634.44420156 C 553.748206132 635.481004516 554.41617743 626.402506919 555.084148728 627.438723448 C 555.752120026 628.474939977 556.420091324 619.271674981 557.088062622 620.307305083 C 557.75603392 621.342935186 558.424005219 612.023364611 559.091976517 613.058408286 C 559.759947815 614.093451961 560.427919113 604.66595708 561.095890411 605.700414328 C 561.763861709 606.734871576 562.431833007 597.207790636 563.099804305 598.241661458 C 563.767775603 599.275532279 564.435746902 589.6571988 565.1037182 590.690483194 C 565.771689498 591.723767589 566.439660796 582.022548903 567.107632094 583.05524687 C 567.775603392 584.087944837 568.44357469 574.312280375 569.111545988 575.344391916 C 569.779517286 576.376503456 570.447488584 566.534942274 571.115459883 567.566467387 C 571.783431181 568.5979925 572.451402479 558.69922955 573.119373777 559.730168237 C 573.787345075 560.761106923 574.455316373 550.814017596 575.123287671 551.844369855 C 575.791258969 552.874722115 576.459230267 542.88839459 577.127201566 543.918160423 C 577.795172864 544.947926255 578.463144162 534.931691227 579.13111546 535.960870633 C 579.799086758 536.990050038 580.467058056 526.953507405 581.135029354 527.982100384 C 581.803000652 529.010693362 582.47097195 518.9637355 583.138943249 519.991742051 C 583.806914547 521.019748603 584.474885845 510.972579876 585.142857143 512.0 C 585.810828441 513.027420124 586.478799739 502.990572319 587.146771037 504.017406016 C 587.814742335 505.044239713 588.482713633 495.028583126 589.150684932 496.054830396 C 589.81865623 497.081077666 590.486627528 487.097827606 591.154598826 488.12348845 C 591.822570124 489.149149293 592.490541422 479.209867819 593.15851272 480.234942235 C 593.826484018 481.260016651 594.494455316 471.376609378 595.162426614 472.401097367 C 595.830397913 473.425585356 596.498369211 463.610293251 597.166340509 464.634194813 C 597.834311807 465.658096375 598.502283105 455.923482466 599.170254403 456.946797601 C 599.838225701 457.970112736 600.506196999 448.32904374 601.174168297 449.351772448 C 601.842139596 450.374501157 602.510110894 440.840124053 603.178082192 441.862266334 C 603.84605349 442.884408615 604.514024788 433.470122248 605.181996086 434.491678103 C 605.849967384 435.513233957 606.517938682 426.232655796 607.18590998 427.253625224 C 607.853881279 428.274594651 608.521852577 419.141522886 609.189823875 420.161905886 C 609.857795173 421.182288886 610.525766471 412.210660058 611.193737769 413.230456631 C 611.861709067 414.250253204 612.529680365 405.454095639 613.197651663 406.473305785 C 613.865622962 407.492515931 614.53359426 398.885899272 615.201565558 399.904522991 C 615.869536856 400.92314671 616.537508154 392.520127865 617.205479452 393.538165157 C 617.87345075 394.556202449 618.541422048 386.370768335 619.209393346 387.3882192 C 619.877364644 388.405670065 620.545335943 380.451677533 621.213307241 381.468541971 C 621.881278539 382.485406409 622.549249837 374.776519786 623.217221135 375.792797797 C 623.885192433 376.809075808 624.553163731 369.358702485 625.221135029 370.374394069 C 625.889106327 371.390085653 626.557077626 364.21131021 627.225048924 365.226415367 C 627.893020222 366.241520524 628.56099152 359.347037863 629.228962818 360.361556593 C 629.896934116 361.376075323 630.564905414 354.778123313 631.232876712 355.792055616 C 631.90084801 356.805987919 632.568819309 350.516280065 633.236790607 351.529625941 C 633.904761905 352.542971817 634.572733203 346.572630459 635.240704501 347.585389908 C 635.908675799 348.598149357 636.576647097 342.957639927 637.244618395 343.969812949 C 637.912589693 344.981985971 638.580560992 339.681052806 639.24853229 340.692639401 C 639.916503588 341.704225995 640.584474886 336.751830219 641.252446184 337.762830387 C 641.920417482 338.773830555 642.58838878 334.178090527 643.256360078 335.188504268 C 643.924331376 336.198918009 644.592302674 331.967052814 645.260273973 332.976880128 C 645.928245271 333.986707442 646.596216569 330.124983879 647.264187867 331.134224766 C 647.932159165 332.143465652 648.600130463 328.65714917 649.268101761 329.66580363 C 649.936073059 330.67445809 650.604044357 327.567768078 651.272015656 328.575836111 C 651.939986954 329.583904143 652.607958252 326.859973961 653.27592955 327.867455567 C 653.943900848 328.874937172 654.611872146 326.53577927 655.279843444 327.542674449 C 655.947814742 328.549569628 656.61578604 326.596046081 657.283757339 327.602354833 C 657.951728637 328.608663585 658.619699935 327.040462314 659.287671233 328.046184639 C 659.955642531 329.051906963 660.623613829 327.867523886 661.291585127 328.872659784 C 661.959556425 329.877795681 662.627527723 329.074522997 663.295499022 330.079072467 C 663.96347032 331.083621938 664.631441618 330.657542696 665.299412916 331.66150574 C 665.967384214 332.665468784 666.635355512 332.611457856 667.30332681 333.614834473 C 667.971298108 334.618211089 668.639269406 334.929942602 669.307240705 335.932732792 C 669.975212003 336.935522982 670.643183301 337.605484243 671.311154599 338.607688006 C 671.979125897 339.609891769 672.647097195 340.629403654 673.315068493 341.63102099 C 673.983039791 342.632638325 674.651011089 343.991882059 675.318982387 344.992912968 C 675.986953686 345.993943877 676.654924984 347.68199409 677.322896282 348.682438572 C 677.99086758 349.682883054 678.658838878 351.687746963 679.326810176 352.687605018 C 679.994781474 353.687463073 680.662752772 355.996125568 681.33072407 356.995397196 C 681.998695369 357.994668823 682.666666667 360.593143227 683.334637965 361.591828428 C 684.002609263 362.590513629 684.670580561 365.463897841 685.338551859 366.461996615 C 686.006523157 367.460095389 686.674494455 370.592633088 687.342465753 371.590145435 C 688.010437052 372.587657781 688.67840835 375.962804328 689.346379648 376.959730247 C 690.014350946 377.956656167 690.682322244 381.557148814 691.350293542 382.553488307 C 692.01826484 383.5498278 692.686236138 387.357759795 693.354207436 388.35351286 C 694.022178735 389.349265926 694.690150033 393.346164043 695.358121331 394.341330681 C 696.026092629 395.33649732 696.694063927 399.503402362 697.362035225 400.497982573 C 698.030006523 401.492562785 698.697977821 405.810112553 699.365949119 406.804106337 C 700.033920417 407.798100122 700.701891716 412.246614351 701.369863014 413.240021708 C 702.037834312 414.233429066 702.70580561 418.792995792 703.373776908 419.785816722 C 704.041748206 420.778637653 704.709719504 425.429200495 705.377690802 426.421434999 C 706.0456621 427.413669502 706.713633399 432.135115309 707.381604697 433.126763385 C 708.049575995 434.118411462 708.717547293 438.890657788 709.385518591 439.881719438 C 710.053489889 440.872781087 710.721461187 445.675862976 711.389432485 446.666338198 C 712.057403783 447.656813421 712.725375082 452.470968936 713.39334638 453.460857731 C 714.061317678 454.450746527 714.729288976 459.256500548 715.397260274 460.245802917 C 716.065231572 461.235105285 716.73320287 466.013351037 717.401174168 467.002066979 C 718.069145466 467.99078292 718.737116765 472.722860755 719.405088063 473.710990269 C 720.073059361 474.699119784 720.741030659 479.366892755 721.409001957 480.354435842 C 722.076973255 481.34197893 722.744944553 485.927904708 723.412915851 486.914861368 C 724.080887149 487.901818029 724.748858447 492.389016751 725.416829746 493.375386985 C 726.084801044 494.361757218 726.752772342 498.73407488 727.42074364 499.719858686 C 728.088714938 500.705642493 728.756686236 504.947709531 729.424657534 505.93290691 C 730.092628832 506.91810429 730.76060013 511.015389048 731.428571429 512.0 C 732.096542727 512.984610952 732.764514025 516.923467736 733.432485323 517.907492262 C 734.100456621 518.891516787 734.768427919 522.659228283 735.436399217 523.642666381 C 736.104370515 524.626104479 736.772341813 528.210918324 737.440313112 529.193769995 C 738.10828441 530.176621666 738.776255708 533.567781019 739.444227006 534.550046263 C 740.112198304 535.532311507 740.780169602 538.720079505 741.4481409 539.701758322 C 742.116112198 540.683437139 742.784083496 543.659115164 743.452054795 544.640207554 C 744.120026093 545.621299944 744.787997391 548.377239675 745.455968689 549.357745638 C 746.123939987 550.338251602 746.791911285 552.867860865 747.459882583 553.847780402 C 748.127853881 554.827699938 748.795825179 557.125442417 749.463796477 558.104775526 C 750.131767776 559.084108635 750.799739074 561.145497533 751.467710372 562.124244215 C 752.13568167 563.102990897 752.803652968 564.924576703 753.471624266 565.902736958 C 754.139595564 566.880897213 754.807566862 568.46024975 755.47553816 569.437823579 C 756.143509459 570.415397407 756.811480757 571.751082379 757.479452055 572.72806978 C 758.147423353 573.705057181 758.815394651 574.796607473 759.483365949 575.773008448 C 760.151337247 576.749409422 760.819308545 577.597291455 761.487279843 578.573106003 C 762.155251142 579.54892055 762.82322244 580.154495998 763.491193738 581.129724118 C 764.159165036 582.104952239 764.827136334 582.470435466 765.495107632 583.445077159 C 766.16307893 584.419718852 766.831050228 584.548130449 767.499021526 585.522185715 C 768.166992825 586.496240981 768.834964123 586.391357791 769.502935421 587.36482663 C 770.170906719 588.338295469 770.838878017 588.004597539 771.506849315 588.977479951 C 772.174820613 589.950362363 772.842791911 589.392977238 773.510763209 590.365273223 C 774.178734508 591.337569208 774.846705806 590.562214033 775.514677104 591.533923591 C 776.182648402 592.50563315 776.8506197 591.51855503 777.518590998 592.489678161 C 778.186562296 593.460801292 778.854533594 592.268716381 779.522504892 593.239253085 C 780.19047619 594.209789789 780.858447489 592.819821567 781.526418787 593.789771844 C 782.194390085 594.759722121 782.862361383 593.179339338 783.530332681 594.148703189 C 784.198303979 595.118067039 784.866275277 593.355021782 785.534246575 594.323799205 C 786.202217873 595.292576628 786.870189172 593.35484296 787.53816047 594.323033956 C 788.206131768 595.291224952 788.874103066 593.186938569 789.542074364 594.154543139 C 790.210045662 595.122147708 790.87801696 592.859547053 791.545988258 593.826565195 C 792.213959556 594.793583337 792.881930855 592.38095256 793.549902153 593.347384275 C 794.217873451 594.31381599 794.885844749 591.759430159 795.553816047 592.725275447 C 796.221787345 593.691120735 796.889758643 591.003193655 797.557729941 591.968452516 C 798.225701239 592.933711377 798.893672538 590.120346363 799.561643836 591.085018797 C 800.229615134 592.049691231 800.897586432 589.118835139 801.56555773 590.082921146 C 802.233529028 591.047007153 802.901500326 588.006407945 803.569471624 588.969907525 C 804.237442922 589.933407105 804.90541422 586.790575212 805.573385519 587.753488365 C 806.241356817 588.716401518 806.909328115 585.478575192 807.577299413 586.440901918 C 808.245270711 587.403228644 808.913242009 584.077343485 809.581213307 585.039083784 C 810.249184605 586.000824083 810.917155903 582.593486892 811.585127202 583.554640764 C 812.2530985 584.515794636 812.921069798 581.033261675 813.589041096 581.99382912 C 814.257012394 582.954396565 814.924983692 579.402556306 815.59295499 580.362537323 C 816.260926288 581.322518341 816.928897586 577.706878723 817.596868885 578.666273314 C 818.264840183 579.625667905 818.932811481 575.951348093 819.600782779 576.910156257 C 820.268754077 577.86896442 820.936725375 574.140691011 821.604696673 575.098912747 C 822.272667971 576.057134484 822.940639269 572.27924208 823.608610568 573.236877389 C 824.276581866 574.194512699 824.944553164 570.370948725 825.612524462 571.327997608 C 826.28049576 572.285046491 826.948467058 568.419380104 827.616438356 569.37584256 C 828.284409654 570.332305016 828.952380952 566.427739914 829.62035225 567.383615943 C 830.288323549 568.339491972 830.956294847 564.398882886 831.624266145 565.354172487 C 832.292237443 566.309462089 832.960208741 562.335334711 833.628180039 563.290037885 C 834.296151337 564.24474106 834.964122635 560.239315132 835.632093933 561.193431879 C 836.300065232 562.147548627 836.96803653 558.112763896 837.636007828 559.066294216 C 838.303979126 560.019824537 838.971950424 555.957369248 839.639921722 556.910313142 C 840.30789302 557.863257036 840.975864318 553.774598635 841.643835616 554.726956102 C 842.311806915 555.679313569 842.979778213 551.565731254 843.647749511 552.517502294 C 844.315720809 553.469273334 844.983692107 549.331892089 845.651663405 550.283076702 C 846.319634703 551.234261314 846.987606001 547.074087053 847.655577299 548.024685239 C 848.323548598 548.975283425 848.991519896 544.79323886 849.659491194 545.743250618 C 850.327462492 546.693262377 850.99543379 542.490223226 851.663405088 543.439648558 C 852.331376386 544.38907389 852.999347684 540.165905041 853.667318982 541.114743946 C 854.33529028 542.063582851 855.003261579 537.821174096 855.671232877 538.769426574 C 856.339204175 539.717679051 857.007175473 535.456980017 857.675146771 536.404646068 C 858.343118069 537.352312118 859.011089367 533.074366031 859.679060665 534.021445655 C 860.347031963 534.968525279 861.015003262 530.674501208 861.68297456 531.620994405 C 862.350945858 532.567487601 863.018917156 528.258710842 863.686888454 529.204617612 C 864.354859752 530.150524382 865.02283105 525.828504664 865.690802348 526.773825006 C 866.358773646 527.719145349 867.026744945 523.385602569 867.694716243 524.330336485 C 868.362687541 525.2750704 869.030658839 520.931957608 869.698630137 521.876105096 C 870.366601435 522.820252585 871.034572733 518.469775971 871.702544031 519.413337032 C 872.370515329 520.356898094 873.038486628 516.001533761 873.706457926 516.944508396 C 874.374429224 517.88748303 875.042400522 513.52999036 875.71037182 514.472378567 C 876.378343118 515.414766775 877.046314416 511.058198219 877.714285714 512.0 C 878.382257012 512.941801781 879.050228311 508.589508968 879.718199609 509.530724321 C 880.386170907 510.471939675 881.054142205 506.12757572 881.722113503 507.068204646 C 882.390084801 508.008833573 883.058056099 503.676351539 883.726027397 504.616394039 C 884.393998695 505.556436538 885.061969993 501.240084031 885.729941292 502.179540103 C 886.39791259 503.118996176 887.065883888 498.823306065 887.733855186 499.762175711 C 888.401826484 500.701045356 889.069797782 496.430822682 889.73776908 497.369105901 C 890.405740378 498.307389119 891.073711676 494.067694256 891.741682975 495.005391047 C 892.409654273 495.943087839 893.077625571 491.73921603 893.745596869 492.676326394 C 894.413568167 493.613436758 895.081539465 489.450894165 895.749510763 490.387418102 C 896.417482061 491.32394204 897.085453359 487.208418485 897.753424658 488.144355995 C 898.421395956 489.080293506 899.089367254 485.017632117 899.757338552 485.9529832 C 900.42530985 486.888334284 901.093281148 482.884498266 901.761252446 483.819262922 C 902.429223744 484.754027579 903.097195042 480.815064388 903.765166341 481.749242617 C 904.433137639 482.683420847 905.101108937 478.815424041 905.769080235 479.749015843 C 906.437051533 480.682607645 907.105022831 476.891676725 907.772994129 477.8246821 C 908.440965427 478.757687475 909.108936725 475.049886042 909.776908023 475.982304991 C 910.444879322 476.914723939 911.11285062 473.296036514 911.780821918 474.227869035 C 912.448793216 475.159701557 913.116764514 471.635989416 913.784735812 472.56723551 C 914.45270711 473.498481605 915.120678408 470.075438004 915.788649706 471.006097671 C 916.456621005 471.936757338 917.124592303 468.619862501 917.792563601 469.549935741 C 918.460534899 470.480008981 919.128506197 467.274485237 919.796477495 468.20397205 C 920.464448793 469.133458863 921.132420091 466.044226316 921.800391389 466.973126702 C 922.468362688 467.902027088 923.136333986 464.933660198 923.804305284 465.861974158 C 924.472276582 466.790288117 925.14024788 463.946973583 925.808219178 464.874701115 C 926.476190476 465.802428647 927.144161774 463.087924943 927.812133072 464.015066048 C 928.480104371 464.942207153 929.148075669 462.359806102 929.816046967 463.28636078 C 930.484018265 464.212915459 931.151989563 461.765406173 931.819960861 462.691374424 C 932.487932159 463.617342675 933.155903457 461.306978206 933.823874755 462.232360031 C 934.491846053 463.157741855 935.159817352 460.98620886 935.82778865 461.911004257 C 936.495759948 462.835799654 937.163731246 460.804191368 937.831702544 461.728400338 C 938.499673842 462.652609308 939.16764514 460.761402098 939.835616438 461.685024641 C 940.503587736 462.608647184 941.171559035 460.857680913 941.839530333 461.780717029 C 942.507501631 462.703753146 943.175472929 461.092215572 943.843444227 462.014665261 C 944.511415525 462.93711495 945.179386823 461.463530333 945.847358121 462.385393596 C 946.515329419 463.307256858 947.183300718 461.969478934 947.851272016 462.89075577 C 948.519243314 463.812032605 949.187214612 462.607242039 949.85518591 463.527932447 C 950.523157208 464.448622855 951.191128506 463.37332926 951.859099804 464.293433241 C 952.527071102 465.213537222 953.195042401 464.263585798 953.863013699 465.183103352 C 954.530984997 466.102620907 955.198956295 465.273203707 955.866927593 466.192134834 C 956.534898891 467.111065961 957.202870189 466.396737771 957.870841487 467.315082471 C 958.538812785 468.233427171 959.206784083 467.628125939 959.874755382 468.545884212 C 960.54272668 469.463642485 961.210697978 468.960714218 961.878669276 469.877886064 C 962.546640574 470.79505791 963.214611872 470.387285904 963.88258317 471.303871323 C 964.550554468 472.220456742 965.218525766 471.900094994 965.886497065 472.816093986 C 966.554468363 473.732092978 967.222439661 473.490903573 967.890410959 474.406316138 C 968.558382257 475.321728703 969.226353555 475.151022976 969.894324853 476.065849114 C 970.562296151 476.980675252 971.230267449 476.871358449 971.898238748 477.78559816 C 972.566210046 478.699837871 973.234181344 478.642457039 973.902152642 479.556110323 C 974.57012394 480.469763607 975.238095238 480.454558411 975.906066536 481.367625268 C 976.574037834 482.280692125 977.242009132 482.297648248 977.909980431 483.210128678 C 978.577951729 484.122609108 979.245923027 484.161513897 979.913894325 485.0734079 C 980.581865623 485.985301903 981.249836921 486.035801883 981.917808219 486.947109459 C 982.585779517 487.858417035 983.253750815 487.910076908 983.921722114 488.820798057 C 984.589693412 489.731519206 985.25766471 489.773881937 985.925636008 490.684016659 C 986.593607306 491.594151381 987.261578604 491.616798964 987.929549902 492.526347259 C 988.5975212 493.435895554 989.265492498 493.428510043 989.933463796 494.337471911 C 990.601435095 495.246433779 991.269406393 495.198858161 991.937377691 496.107233602 C 992.605348989 497.015609043 993.273320287 496.91790754 993.941291585 497.825696554 C 994.609262883 498.733485568 995.277234181 498.576002953 995.945205479 499.48320554 C 996.613176778 500.390408127 997.281148076 500.163827629 997.949119374 501.070443789 C 998.617090672 501.977059948 999.28506197 501.672459365 999.953033268 502.578489098 C 1000.62100457 503.484518831 1001.28897586 503.093424442 1001.95694716 503.998867748 C 1002.62491846 504.904311053 1003.29288976 504.418748965 1003.96086106 505.323605843 C 1004.62883235 506.228462722 1005.29680365 505.641007285 1005.96477495 506.545277737 C 1006.63274625 507.449548189 1007.30071755 506.753367152 1007.96868885 507.657051177 C 1008.63666014 508.560735202 1009.30463144 507.749631286 1009.97260274 508.652728884 C 1010.64057404 509.555826481 1011.30854534 508.624275074 1011.97651663 509.526786245 C 1012.64448793 510.429297416 1013.31245923 509.372480144 1013.98043053 510.274404888 C 1014.64840183 511.176329631 1015.31637312 509.990163556 1015.98434442 510.891501872 C 1016.65231572 511.792840189 1017.32028702 510.474002434 1017.98825832 511.374754323 C 1018.65622962 512.275506213 1019.32420091 510.82145385 1019.99217221 511.721619313 C 1020.66014351 512.621784776 1021.32811481 511.030769833 1021.99608611 511.930348868 C 1022.6640574 512.829927904 1023.3320287 511.101007391 1024.0 512.0"
       transform="translate(0,-599)"
       style="fill:#0000ff;fill-opacity:1;stroke:#00ff00;stroke-width:32;stroke-linecap:round;stroke-linejoin:round;stroke-miterlimit:4;stroke-opacity:1;stroke-dasharray:none" />
    <path
       inkscape:connector-curvature="0"
       id="path4019"
       d="m 0,-87 1024,0"
       style="fill:#ff00ff;fill-opacity:1;stroke:#ff00ff;stroke-width:32;stroke-linecap:round;stroke-linejoin:miter;stroke-miterlimit:4;stroke-opacity:1;stroke-dasharray:none" />
  </g>
</svg>
