<?xml version="1.0" encoding="UTF-8" standalone="no"?>
<!-- Created with Inkscape (http://www.inkscape.org/) -->

<svg
   xmlns:dc="http://purl.org/dc/elements/1.1/"
   xmlns:cc="http://creativecommons.org/ns#"
   xmlns:rdf="http://www.w3.org/1999/02/22-rdf-syntax-ns#"
   xmlns:svg="http://www.w3.org/2000/svg"
   xmlns="http://www.w3.org/2000/svg"
   xmlns:sodipodi="http://sodipodi.sourceforge.net/DTD/sodipodi-0.dtd"
   xmlns:inkscape="http://www.inkscape.org/namespaces/inkscape"
   width="16"
   height="16"
   id="svg4673"
   version="1.1"
   inkscape:version="0.48.1 r9760"
   sodipodi:docname="phasex-icon-tiny.svg"
   inkscape:export-filename="phasex-icon-tiny.png"
   inkscape:export-xdpi="5.625"
   inkscape:export-ydpi="5.625">
  <sodipodi:namedview
     id="base"
     pagecolor="#ffffff"
     bordercolor="#666666"
     borderopacity="1.0"
     inkscape:pageopacity="0.0"
     inkscape:pageshadow="2"
     inkscape:zoom="2.8"
     inkscape:cx="144.86295"
     inkscape:cy="136.81277"
     inkscape:document-units="px"
     inkscape:current-layer="layer1"
     showgrid="true"
     inkscape:object-nodes="true"
     inkscape:window-width="1920"
     inkscape:window-height="1006"
     inkscape:window-x="0"
     inkscape:window-y="24"
     inkscape:window-maximized="1">
    <inkscape:grid
       type="xygrid"
       id="grid4681"
       empspacing="2"
       visible="true"
       enabled="true"
       snapvisiblegridlinesonly="true" />
  </sodipodi:namedview>
  <defs
     id="defs4675" />
  <metadata
     id="metadata4678">
    <rdf:RDF>
      <cc:Work
         rdf:about="">
        <dc:format>image/svg+xml</dc:format>
        <dc:type
           rdf:resource="http://purl.org/dc/dcmitype/StillImage" />
        <dc:title></dc:title>
      </cc:Work>
    </rdf:RDF>
  </metadata>
  <g
     inkscape:label="Layer 1"
     inkscape:groupmode="layer"
     id="layer1"
     transform="translate(0,-796.36218)">
    <path
       transform="translate(0,796.36218)"
       inkscape:connector-curvature="0"
       id="path5206"
       d="m 0,128 256,0"
       style="fill:#ff00ff;stroke:#ff00ff;stroke-width:19;stroke-linecap:round;stroke-linejoin:miter;stroke-opacity:1;stroke-miterlimit:4;stroke-dasharray:none" />
    <path
       id="path5217"
       title="-0.56*(sin(x)+sin(2*x)/2+sin(3*x)/3+sin(4*x)/4+sin(5*x)/5+sin(6*x)/6+sin(7*x)/7)*sin(5*x)*x"
       d=" M 0.0 128.0 C 0.166992824527 128.299664203 0.333985649054 127.592237982 0.500978473581 127.891755578 C 0.667971298108 128.191273174 0.834964122635 127.26823117 1.00195694716 127.567602159 C 1.16894977169 127.866973149 1.33594259622 126.72973455 1.50293542074 127.028958932 C 1.66992824527 127.328183315 1.8369210698 125.978894785 2.00391389432 126.277972561 C 2.17090671885 126.577050337 2.33789954338 125.018577408 2.50489236791 125.317508577 C 2.67188519243 125.616439746 2.83887801696 123.852355546 3.00587084149 124.151140108 C 3.17286366601 124.449924671 3.33985649054 122.484496034 3.50684931507 122.783133989 C 3.6738421396 123.081771945 3.84083496412 120.919942968 4.00782778865 121.218434317 C 4.17482061318 121.516925666 4.3418134377 119.164298778 4.50880626223 119.46264352 C 4.67579908676 119.760988262 4.84279191129 117.223802884 5.00978473581 117.522001019 C 5.17677756034 117.820199155 5.34377038487 115.10530805 5.51076320939 115.403359579 C 5.67775603392 115.701411107 5.84474885845 112.816254516 6.01174168297 113.114159438 C 6.1787345075 113.412064359 6.34572733203 110.364642025 6.51272015656 110.66240034 C 6.67971298108 110.960158655 6.84670580561 107.75899987 7.01369863014 108.056611578 C 7.18069145466 108.354223286 7.34768427919 105.008355067 7.51467710372 105.305820169 C 7.68166992825 105.60328527 7.84866275277 102.122198814 8.0156555773 102.419517308 C 8.18264840183 102.716835803 8.34964122635 99.110451348 8.51663405088 99.4076232361 C 8.68362687541 99.7047951242 8.85061969993 95.9834253739 9.01761252446 96.2804506553 C 9.18460534899 96.5774759366 9.35159817352 92.7517881911 9.51859099804 93.0486668657 C 9.68558382257 93.3455455403 9.8525766471 89.4265226941 10.0195694716 89.7232547619 C 10.1865622962 90.0199868297 10.3535551207 86.0188873979 10.5205479452 86.315472859 C 10.6875407697 86.6120583201 10.8545335943 82.5403756553 11.0215264188 82.8368145096 C 11.1885192433 83.133253364 11.3555120678 79.0026742321 11.5225048924 79.2989664797 C 11.6894977169 79.5952587273 11.8564905414 75.4176214098 12.0234833659 75.7137670506 C 12.1904761905 76.0099126914 12.357469015 71.7971647846 12.5244618395 72.0931638187 C 12.6914546641 72.3891628528 12.8584474886 68.1533189351 13.0254403131 68.4491713625 C 13.1924331376 68.7450237898 13.3594259622 64.4981231257 13.5264187867 64.7938289463 C 13.6934116112 65.0895347668 13.8604044357 60.8435992176 14.0273972603 61.1391584314 C 14.1943900848 61.4347176452 14.3613829093 57.2017099528 14.5283757339 57.4971225599 C 14.6953685584 57.7925351669 14.8623613829 53.5843177765 15.0293542074 53.8795837768 C 15.196347032 54.1748497771 15.3633398565 50.0031443584 15.530332681 50.2982637519 C 15.6973255055 50.5933831455 15.8643183301 46.4697309712 16.0313111546 46.764703758 C 16.1983039791 47.0596765448 16.3652968037 42.9953998789 16.5322896282 43.2902260589 C 16.6992824527 43.585052239 16.8662752772 39.5912168811 17.0332681018 39.8858964544 C 17.2002609263 40.1805760277 17.3672537508 36.2679551568 17.5342465753 36.5624881234 C 17.7012393999 36.8570210899 17.8682322244 33.0360605415 18.0352250489 33.3304469012 C 18.2022178735 33.624833261 18.369210698 29.9056183649 18.5362035225 30.1998581179 C 18.703196347 30.494097871 18.8701891716 26.886321972 19.0371819961 27.1804151183 C 19.2041748206 27.4745082646 19.3711676451 23.9874430369 19.5381604697 24.2813895764 C 19.7051532942 24.575336116 19.8721461187 21.2178037752 20.0391389432 21.511603708 C 20.2061317678 21.8054036408 20.3731245923 18.5857511489 20.5401174168 18.879404475 C 20.7071102414 19.173057801 20.8741030659 16.0991331496 21.0410958904 16.3926398688 C 21.2080887149 16.6861465881 21.3750815395 13.7652772352 21.542074364 14.0586373477 C 21.7090671885 14.3519974603 21.876060013 11.590970988 22.0430528376 11.8841844937 C 22.2100456621 12.1773979995 22.3770384866 9.58244504681 22.5440313112 9.87551194582 C 22.7110241357 10.1685788448 22.8780169602 7.74535836242 23.0450097847 8.03827865468 C 23.2120026093 8.33119894694 23.3789954338 6.08478580853 23.5459882583 6.37755949404 C 23.7129810828 6.67033317954 23.8799739074 4.60520817452 24.0469667319 4.89783525327 C 24.2139595564 5.19046233202 24.380952381 3.31050455354 24.5479452055 3.60298502554 C 24.71493803 3.89546549754 24.8819308545 2.20394712967 25.0489236791 2.49628099492 C 25.2159165036 2.78861486016 25.3829093281 1.28819835725 25.5499021526 1.58038561574 C 25.7168949772 1.87257287424 25.8838878017 0.565310515258 26.0508806262 0.857351166999 C 26.2178734508 1.14939181874 26.3848662753 0.0367276094127 26.5518590998 0.328621654401 C 26.7188519243 0.62051569939 26.8858447489 -0.296710415382 27.0528375734 -0.00496297714596 C 27.2198303979 0.28678446109 27.3868232224 -0.434761199158 27.553816047 -0.143160367675 C 27.7208088715 0.148440463808 27.887801696 -0.377771284034 28.0547945205 -0.0863170593041 C 28.2217873451 0.205137165426 28.3887801696 -0.126665289849 28.5557729941 0.164642328128 C 28.7227658187 0.455949946105 28.8897586432 0.317066977559 29.0567514677 0.608227988783 C 29.2237442922 0.899389000007 29.3907371168 0.951385402994 29.5577299413 1.24239980747 C 29.7247227658 1.53341421194 29.8917155903 1.77371633323 30.0587084149 2.06458413094 C 30.2257012394 2.35545192866 30.3926940639 2.78097114542 30.5596868885 3.07169233638 C 30.726679713 3.36241352735 30.8936725375 3.96956650826 31.060665362 4.26014109247 C 31.2276581866 4.55071567668 31.3946510111 5.33544622518 31.5616438356 5.62587420264 C 31.7286366601 5.9163021801 31.8956294847 6.87410454325 32.0626223092 7.16438591396 C 32.2296151337 7.45466728466 32.3966079583 8.58061080635 32.5636007828 8.87074557031 C 32.7305936073 9.16088033426 32.8975864318 10.4496353266 33.0645792564 10.7396234838 C 33.2315720809 11.029611641 33.3985649054 12.4754763445 33.5655577299 12.7653178949 C 33.7325505545 13.0551594454 33.899543379 14.6520879439 34.0665362035 14.9417828876 C 34.233529028 15.2314778313 34.4005218526 16.9731087877 34.5675146771 17.2626571247 C 34.7345075016 17.5522054616 34.9015003262 19.4318915353 35.0684931507 19.7212932655 C 35.2354859752 20.0106949957 35.4024787997 22.0215328035 35.5694716243 22.310787927 C 35.7364644488 22.6000430504 35.9034572733 24.7349035319 36.0704500978 25.0240120486 C 36.2374429224 25.3131205653 36.4044357469 27.5646796132 36.5714285714 27.8536415231 C 36.738421396 28.1426034331 36.9054142205 30.5033726493 37.072407045 30.7921879524 C 37.2393998695 31.0810032556 37.4063926941 33.543360697 37.5733855186 33.8320293934 C 37.7403783431 34.1206980898 37.9073711676 36.6769188674 38.0743639922 36.965440957 C 38.2413568167 37.2539630467 38.4083496412 39.8962496462 38.5753424658 40.1846251291 C 38.7423352903 40.473000612 38.9093281148 43.1935128062 39.0763209393 43.4817416824 C 39.2433137639 43.7699705585 39.4103065884 46.5608547858 39.5772994129 46.8489370553 C 39.7442922374 47.1370193247 39.911285062 49.9904374123 40.0782778865 50.278373075 C 40.245270711 50.5663087376 40.4122635356 53.4744658534 40.5792563601 53.7622549094 C 40.7462491846 54.0500439653 40.9132420091 57.0052156869 41.0802348337 57.292858136 C 41.2472276582 57.5805005852 41.4142204827 60.575058981 41.5812133072 60.8625548234 C 41.7482061318 61.1500506658 41.9151989563 64.1764892893 42.0821917808 64.4638385249 C 42.2491846053 64.7511877606 42.4161774299 67.8021454651 42.5831702544 68.089348094 C 42.7501630789 68.3765507229 42.9171559035 71.4448342121 43.084148728 71.7318902342 C 43.2511415525 72.0189462564 43.418134377 75.0975512916 43.5851272016 75.384460707 C 43.7521200261 75.6713701223 43.9191128506 78.7535013175 44.0861056751 79.0402641261 C 44.2530984997 79.3270269348 44.4200913242 82.4061160756 44.5870841487 82.6927322775 C 44.7540769733 82.9793484794 44.9210697978 86.0490713129 45.0880626223 86.335540908 C 45.2550554468 86.6220105031 45.4220482714 89.6763019509 45.5890410959 89.9626249393 C 45.7560339204 90.2489479277 45.9230267449 93.2820156858 46.0900195695 93.5681920674 C 46.257012394 93.8543684491 46.4240052185 96.8607049445 46.5909980431 97.1467347194 C 46.7579908676 97.4327644943 46.9249836921 100.407157178 47.0919765166 100.693040346 C 47.2589693412 100.978923514 47.4259621657 103.916463476 47.5929549902 104.202200038 C 47.7599478147 104.487936599 47.9269406393 107.384025507 48.0939334638 107.669615461 C 48.2609262883 107.955205416 48.4279191129 110.805560771 48.5949119374 111.091004119 C 48.7619047619 111.376447467 48.9288975864 114.177106206 49.095890411 114.462402947 C 49.2628832355 114.747699689 49.42987606 117.495020133 49.5968688845 117.780170268 C 49.7638617091 118.065320402 49.9308545336 120.755982601 50.0978473581 121.040986129 C 50.2648401826 121.325989657 50.4318330072 123.956994147 50.5988258317 124.241851068 C 50.7658186562 124.526707989 50.9328114808 127.09537302 51.0998043053 127.380083335 C 51.2667971298 127.664793649 51.4337899543 130.168750929 51.6007827789 130.453314636 C 51.7677756034 130.737878343 51.9347684279 133.175067348 52.1017612524 133.459484449 C 52.268754077 133.743901549 52.4357469015 136.112562475 52.602739726 136.396832969 C 52.7697325506 136.681103462 52.9367253751 138.979768877 53.1037181996 139.263892764 C 53.2707110241 139.548016651 53.4377038487 141.775501931 53.6046966732 142.059479212 C 53.7716894977 142.343456492 53.9386823222 144.49884911 54.1056751468 144.782679784 C 54.2726679713 145.066510457 54.4396607958 147.149158218 54.6066536204 147.432842285 C 54.7736464449 147.716526352 54.9406392694 149.726024658 55.1076320939 150.009562118 C 55.2746249185 150.293099578 55.441617743 152.229277812 55.6086105675 152.512668665 C 55.775603392 152.796059518 55.9425962166 154.658966651 56.1095890411 154.942210897 C 56.2765818656 155.225455144 56.4435746902 157.015344648 56.6105675147 157.298442287 C 56.7775603392 157.581539927 56.9445531637 159.298854106 57.1115459883 159.581805139 C 57.2785388128 159.864756172 57.4455316373 161.510110004 57.6125244618 161.79291443 C 57.7795172864 162.075718856 57.9465101109 163.649883449 58.1135029354 163.932541268 C 58.2804957599 164.215199088 58.4474885845 165.719084849 58.614481409 166.001596061 C 58.7814742335 166.284107274 58.9484670581 167.718746901 59.1154598826 168.001111507 C 59.2824527071 168.283476114 59.4494455316 169.6500075 59.6164383562 169.932225499 C 59.7834311807 170.214443498 59.9504240052 171.514092653 60.1174168297 171.796164046 C 60.2844096543 172.078235438 60.4514024788 173.312299526 60.6183953033 173.594224312 C 60.7853881279 173.876149098 60.9523809524 175.045979683 61.1193737769 175.327757862 C 61.2863666014 175.609536041 61.453359426 176.716522637 61.6203522505 176.99815421 C 61.787345075 177.279785782 61.9543378995 178.325339791 62.1213307241 178.606824757 C 62.2883235486 178.888309722 62.4553163731 179.873848854 62.6223091977 180.155187213 C 62.7893020222 180.436525572 62.9562948467 181.363458818 63.1232876712 181.64465057 C 63.2902804958 181.925842322 63.4572733203 182.795555571 63.6242661448 183.076600716 C 63.7912589693 183.357645862 63.9582517939 184.171488223 64.1252446184 184.452386761 C 64.2922374429 184.7332853 64.4592302674 185.4925562 64.626223092 185.773308131 C 64.7932159165 186.054060063 64.960208741 186.759997185 65.1272015656 187.04060251 C 65.2941943901 187.321207835 65.4611872146 187.974975955 65.6281800391 188.255434673 C 65.7951728637 188.535893391 65.9621656882 189.138574154 66.1291585127 189.418886265 C 66.2961513372 189.699198377 66.4631441618 190.251781071 66.6301369863 190.531946575 C 66.7971298108 190.81211208 66.9641226354 191.315485434 67.1311154599 191.595504332 C 67.2981082844 191.87552323 67.4651011089 192.330468278 67.6320939335 192.610340569 C 67.799086758 192.89021286 67.9660795825 193.297396882 68.133072407 193.577122567 C 68.3000652316 193.856848251 68.4670580561 194.216819833 68.6340508806 194.496398911 C 68.8010437052 194.775977988 68.9680365297 195.089163188 69.1350293542 195.368595659 C 69.3020221787 195.64802813 69.4690150033 195.914727774 69.6360078278 196.194013639 C 69.8030006523 196.473299503 69.9699934768 196.693687603 70.1369863014 196.97282686 C 70.3039791259 197.251966118 70.4709719504 197.426089404 70.637964775 197.705082055 C 70.8049575995 197.984074705 70.971950424 198.111853262 71.1389432485 198.390699306 C 71.3059360731 198.66954535 71.4729288976 198.750774337 71.6399217221 199.029473774 C 71.8069145466 199.308173211 71.9739073712 199.342525637 72.1409001957 199.621078468 C 72.3078930202 199.899631298 72.4748858447 199.886661825 72.6418786693 200.165068049 C 72.8088714938 200.443474273 72.9758643183 200.38262401 73.1428571429 200.660883627 C 73.3098499674 200.939143244 73.4768427919 200.829745485 73.6438356164 201.107858495 C 73.810828441 201.385971505 73.9778212655 201.227258368 74.14481409 201.505224772 C 74.3118069145 201.783191175 74.4787997391 201.574301093 74.6457925636 201.85212089 C 74.8127853881 202.129940687 74.9797782127 201.869926685 75.1467710372 202.147599875 C 75.3137638617 202.425273065 75.4807566862 202.113111777 75.6477495108 202.39063836 C 75.8147423353 202.668164943 75.9817351598 202.302766288 76.1487279843 202.580146264 C 76.3157208089 202.85752624 76.4827136334 202.437743708 76.6497064579 202.714977077 C 76.8166992825 202.992210447 76.983692107 202.516851911 77.1506849315 202.793938674 C 77.317677756 203.071025437 77.4846705806 202.538864431 77.6516634051 202.815804587 C 77.8186562296 203.092744743 77.9856490541 202.502532116 78.1526418787 202.779325665 C 78.3196347032 203.056119215 78.4866275277 202.406595103 78.6536203523 202.683242045 C 78.8206131768 202.959888988 78.9876060013 202.249795015 79.1545988258 202.526295351 C 79.3215916504 202.802795687 79.4885844749 202.030887322 79.6555772994 202.307241051 C 79.8225701239 202.583594781 79.9895629485 201.748653774 80.156555773 202.024860896 C 80.3235485975 202.301068019 80.490541422 201.401914834 80.6575342466 201.67797535 C 80.8245270711 201.954035865 80.9915198956 200.98954204 81.1585127202 201.265455949 C 81.3255055447 201.541369858 81.4924983692 200.510470207 81.6594911937 200.786237509 C 81.8264840183 201.062004811 81.9934768428 199.963709407 82.1604696673 200.239330103 C 82.3274624918 200.514950798 82.4944553164 199.348356646 82.6614481409 199.623830735 C 82.8284409654 199.899304824 82.99543379 198.663607173 83.1624266145 198.938934655 C 83.329419439 199.214262137 83.4964122635 197.90876535 83.6634050881 198.183946225 C 83.8303979126 198.4591271 83.9973907371 197.083255017 84.1643835616 197.358289285 C 84.3313763862 197.633323554 84.4983692107 196.186629301 84.6653620352 196.461516962 C 84.8323548598 196.736404624 84.9993476843 195.218579791 85.1663405088 195.493320846 C 85.3333333333 195.768061901 85.5003261579 194.178945049 85.6673189824 194.453539497 C 85.8343118069 194.728133945 86.0013046314 193.067718384 86.168297456 193.342166225 C 86.3352902805 193.616614067 86.502283105 191.885054864 86.6692759295 192.159356098 C 86.8362687541 192.433657333 87.0032615786 190.63127751 87.1702544031 190.905432138 C 87.3372472277 191.179586766 87.5042400522 189.306882646 87.6712328767 189.580890667 C 87.8382257012 189.854898688 88.0052185258 187.912544366 88.1722113503 188.18640578 C 88.3392041748 188.460267195 88.5061969993 186.449118101 88.6731898239 186.722832908 C 88.8401826484 186.996547716 89.0071754729 184.917643255 89.1741682975 185.191211456 C 89.341161122 185.464779657 89.5081539465 183.319344907 89.675146771 183.592766501 C 89.8421395956 183.866188095 90.0091324201 181.655634551 90.1761252446 181.928909539 C 90.3431180691 182.202184526 90.5101108937 179.928109897 90.6771037182 180.201238278 C 90.8440965427 180.474366659 91.0110893673 178.138553699 91.1780821918 178.411535473 C 91.3450750163 178.684517247 91.5120678408 176.288931646 91.6790606654 176.561766813 C 91.8460534899 176.83460198 92.0130463144 174.381389311 92.1800391389 174.654077872 C 92.3470319635 174.926766432 92.514024788 172.418248179 92.6810176125 172.690790133 C 92.8480104371 172.963332086 93.0150032616 170.402000771 93.1819960861 170.674396118 C 93.3489889106 170.946791465 93.5159817352 168.335304899 93.6829745597 168.607553639 C 93.8499673842 168.87980238 94.0169602087 166.220977076 94.1839530333 166.493079209 C 94.3509458578 166.765181342 94.5179386823 164.06198511 94.6849315068 164.333940636 C 94.8519243314 164.605896163 95.0189171559 161.86143994 95.1859099804 162.13324886 C 95.352902805 162.40505778 95.5198956295 159.62258674 95.686888454 159.894249053 C 95.8538812785 160.165911366 96.0208741031 157.348795341 96.1878669276 157.620311048 C 96.3548597521 157.891826754 96.5218525766 155.043550033 96.6888454012 155.314919132 C 96.8558382257 155.586288232 97.0228310502 152.710438782 97.1898238748 152.981661275 C 97.3568166993 153.252883768 97.5238095238 150.353141941 97.6908023483 150.624217827 C 97.8577951729 150.895293713 98.0247879974 147.975420487 98.1917808219 148.246349767 C 98.3587736464 148.517279046 98.525766471 145.581103875 98.6927592955 145.851886548 C 98.85975212 146.12266922 99.0267449446 143.174077541 99.1937377691 143.444713607 C 99.3607305936 143.715349673 99.5277234181 140.758270145 99.6947162427 141.028759604 C 99.8617090672 141.299249064 100.028701892 138.337640605 100.195694716 138.607983457 C 100.362687541 138.87832631 100.529680365 135.916164986 100.69667319 136.186361231 C 100.863666014 136.456557477 101.030658839 133.497823321 101.197651663 133.76787296 C 101.364644488 134.037922598 101.531637312 131.086586424 101.698630137 131.356489456 C 101.865622962 131.626392488 102.032615786 128.68640276 102.199608611 128.956159185 C 102.366601435 129.225915611 102.53359426 126.301185435 102.700587084 126.570795254 C 102.867579909 126.840405072 103.034572733 123.934799383 103.201565558 124.204262594 C 103.368558382 124.473725806 103.535551207 121.591048794 103.702544031 121.860365399 C 103.869536856 122.129682004 104.03652968 119.273664862 104.203522505 119.542834861 C 104.370515329 119.812004859 104.537508154 116.986293895 104.704500978 117.255317286 C 104.871493803 117.524340678 105.038486628 114.732485856 105.205479452 115.00136264 C 105.372472277 115.270239425 105.539465101 112.515683385 105.706457926 112.784413563 C 105.87345075 113.053143741 106.040443575 110.339211352 106.207436399 110.607794924 C 106.374429224 110.876378495 106.541422048 108.206266985 106.708414873 108.47470395 C 106.875407697 108.743140914 107.042400522 106.119910624 107.209393346 106.388200982 C 107.376386171 106.656491339 107.543378995 104.083057139 107.71037182 104.35120089 C 107.877364644 104.619344641 108.044357469 102.098468045 108.211350294 102.36646519 C 108.378343118 102.634462334 108.545335943 100.168744357 108.712328767 100.436594894 C 108.879321592 100.704445432 109.046314416 98.2963201897 109.213307241 98.5640241205 C 109.380300065 98.8317280513 109.54729289 96.4834571653 109.714285714 96.7510144893 C 109.881278539 97.0185718133 110.048271363 94.7322396064 110.215264188 94.9996503237 C 110.382257012 95.2670610409 110.549249837 93.0445705604 110.716242661 93.3118346709 C 110.883235486 93.5790987814 111.050228311 91.4221686519 111.217221135 91.6892861556 C 111.38421396 91.9564036594 111.551206784 89.8665657725 111.718199609 90.1335366695 C 111.885192433 90.4005075665 112.052185258 88.3791056114 112.219178082 88.6459299016 C 112.386170907 88.9127541918 112.553163731 86.9609430212 112.720156556 87.2276207047 C 112.88714938 87.4942983882 113.054142205 85.6130442152 113.221135029 85.879575292 C 113.388127854 86.1461063687 113.555120678 84.3361877813 113.722113503 84.6025722513 C 113.889106327 84.8689567213 114.056099152 83.1309664997 114.223091977 83.3972043629 C 114.390084801 83.6634422261 114.557077626 81.9977899427 114.72407045 82.2638811992 C 114.891063275 82.5299724556 115.058056099 80.9368878337 115.225048924 81.2028324835 C 115.392041748 81.4687771332 115.559034573 79.9483141375 115.726027397 80.2141121805 C 115.893020222 80.4799102234 116.060013046 79.0319518498 116.227005871 79.297603286 C 116.393998695 79.5632547222 116.56099152 78.1875184531 116.727984344 78.4530232826 C 116.894977169 78.7185281121 117.061969993 77.4145719992 117.228962818 77.6799302219 C 117.395955643 77.9452884446 117.562948467 76.7125177778 117.729941292 76.9777293937 C 117.896934116 77.2429410097 118.063926941 76.0806155285 118.230919765 76.3456805377 C 118.39791259 76.6107455469 118.564905414 75.5179871493 118.731898239 75.7829055517 C 118.898891063 76.0478239542 119.065883888 75.023624853 119.232876712 75.2883966487 C 119.399869537 75.5531684444 119.566862361 74.5963997228 119.733855186 74.8610249117 C 119.90084801 75.1256501007 120.067840835 74.2350706132 120.234833659 74.4995491954 C 120.401826484 74.7640277776 120.568819309 73.9382933456 120.735812133 74.2026253211 C 120.902804958 74.4669572965 121.069797782 73.7046301428 121.236790607 73.9688155115 C 121.403783431 74.2330008802 121.570776256 73.5325592479 121.73776908 73.7965980099 C 121.904761905 74.0606367718 122.071754729 73.420484674 122.238747554 73.6843768292 C 122.405740378 73.9482689844 122.572733203 73.3667460274 122.739726027 73.6304915758 C 122.906718852 73.8942371242 123.073711676 73.3696283512 123.240704501 73.6332272929 C 123.407697326 73.8968262346 123.57469015 73.4273719349 123.741682975 73.6908242698 C 123.908675799 73.9542766048 124.075668624 73.5381820347 124.242661448 73.8014877629 C 124.409654273 74.064793491 124.576647097 73.700238455 124.743639922 73.9633975764 C 124.910632746 74.2265566978 125.077625571 73.9117049384 125.244618395 74.1747174531 C 125.41161122 74.4377299678 125.578604044 74.1707383156 125.745596869 74.4336042235 C 125.912589693 74.6964701314 126.079582518 74.4754973677 126.246575342 74.7382166689 C 126.413568167 75.0009359701 126.580560992 74.8241513576 126.747553816 75.086724052 C 126.914546641 75.3492967464 127.081539465 75.214888185 127.24853229 75.4773142726 C 127.415525114 75.7397403603 127.582517939 75.6459221286 127.749510763 75.9082016095 C 127.916503588 76.1704810904 128.083496412 76.1155011361 128.250489237 76.3776340103 C 128.417482061 76.6397668844 128.584474886 76.6219136295 128.75146771 76.8838998969 C 128.918460535 77.1458861643 129.085453359 77.163494794 129.252446184 77.4253344546 C 129.419439008 77.6871741153 129.586431833 77.7386323246 129.753424658 78.0003253785 C 129.920417482 78.2620184324 130.087410307 78.3457716054 130.254403131 78.6073180526 C 130.421395956 78.8688644997 130.58838878 78.9834203023 130.755381605 79.2448201427 C 130.922374429 79.5062199831 131.089367254 79.6501523515 131.256360078 79.9114055851 C 131.423352903 80.1726588188 131.590345727 80.3446113327 131.757338552 80.6057179596 C 131.924331376 80.8668245864 132.091324201 81.0655132165 132.258317025 81.3264732366 C 132.42530985 81.5874332567 132.592302674 81.8116484818 132.759295499 82.0724618951 C 132.926288324 82.3332753085 133.093281148 82.5818836014 133.260273973 82.842550408 C 133.427266797 83.1032172146 133.594259622 83.3751618984 133.761252446 83.6356820983 C 133.928245271 83.8962022981 134.095238095 84.1905037794 134.26223092 84.4508773725 C 134.429223744 84.7112509657 134.596216569 85.0270063546 134.763209393 85.287233341 C 134.930202218 85.5474603274 135.097195042 85.8838424578 135.264187867 86.1439228374 C 135.431180691 86.404003217 135.598173516 86.7602590832 135.765166341 87.020192856 C 135.932159165 87.2801266289 136.09915199 87.6555752599 136.266144814 87.915362426 C 136.433137639 88.1751495921 136.600130463 88.5691793864 136.767123288 88.8288199457 C 136.934116112 89.0884605051 137.101108937 89.5005260518 137.268101761 89.7600200044 C 137.435094586 90.019513957 137.60208741 90.4491323739 137.769080235 90.7084797197 C 137.936073059 90.9678270656 138.103065884 91.4145738847 138.270058708 91.6737746238 C 138.437051533 91.9329753629 138.604044357 92.3964799989 138.771037182 92.6555341313 C 138.938030007 92.9145882636 139.105022831 93.3945291008 139.272015656 93.6534366264 C 139.43900848 93.912344152 139.606001305 94.4084432897 139.772994129 94.6672042085 C 139.939986954 94.9259651273 140.106979778 95.4379828225 140.273972603 95.6965971346 C 140.440965427 95.9552114467 140.607958252 96.4829402972 140.774951076 96.7414080025 C 140.941943901 96.9998757078 141.108936725 97.5431346183 141.27592955 97.8014557169 C 141.442922374 98.0597768155 141.609915199 98.6184047906 141.776908023 98.8765792824 C 141.943900848 99.1347537743 142.110893673 99.7086035838 142.277886497 99.9666314689 C 142.444879322 100.224659354 142.611872146 100.813591115 142.778864971 101.071472394 C 142.945857795 101.329353672 143.11285062 101.933228396 143.279843444 102.190963067 C 143.446836269 102.448697739 143.613829093 103.067370882 143.780821918 103.324958947 C 143.947814742 103.582547011 144.114807567 104.215862083 144.281800391 104.473303541 C 144.448793216 104.730744999 144.61578604 105.378527268 144.782778865 105.635822119 C 144.949771689 105.893116971 145.116764514 106.555167307 145.283757339 106.812315551 C 145.450750163 107.069463796 145.617742988 107.745552703 145.784735812 108.002554341 C 145.951728637 108.259555978 146.118721461 108.949417845 146.285714286 109.206272876 C 146.45270711 109.463127907 146.619699935 110.166455528 146.786692759 110.423163952 C 146.953685584 110.679872376 147.120678408 111.396311769 147.287671233 111.652873586 C 147.454664057 111.909435404 147.621656882 112.638580968 147.788649706 112.894996179 C 147.955642531 113.15141139 148.122635356 113.892801434 148.28962818 114.149070039 C 148.456621005 114.405338643 148.623613829 115.158451316 148.790606654 115.414573313 C 148.957599478 115.670695311 149.124592303 116.434944959 149.291585127 116.690920349 C 149.458577952 116.94689574 149.625570776 117.721629723 149.792563601 117.977458507 C 149.959556425 118.23328729 150.12654925 119.017783273 150.293542074 119.27346545 C 150.460534899 119.529147627 150.627527723 120.322611373 150.794520548 120.578146944 C 150.961513372 120.833682514 151.128506197 121.635246189 151.295499022 121.890635152 C 151.462491846 122.146024116 151.629484671 122.954745119 151.796477495 123.209987476 C 151.96347032 123.465229833 152.130463144 124.280090173 152.297455969 124.535185923 C 152.464448793 124.790281673 152.631441618 125.610187878 152.798434442 125.865137021 C 152.965427267 126.120086164 153.132420091 126.943869747 153.299412916 127.198672283 C 153.46640574 127.45347482 153.633398565 128.279893291 153.800391389 128.534549221 C 153.967384214 128.789205151 154.134377038 129.616943575 154.301369863 129.871452898 C 154.468362688 130.125962221 154.635355512 130.95363531 154.802348337 131.207998026 C 154.969341161 131.462360742 155.136333986 132.288515481 155.30332681 132.542731591 C 155.470319635 132.7969477 155.637312459 133.620066486 155.804305284 133.874135989 C 155.971298108 134.128205492 156.138290933 134.946709774 156.305283757 135.20063267 C 156.472276582 135.454555565 156.639269406 136.266809964 156.806262231 136.520586253 C 156.973255055 136.774362542 157.14024788 137.578679428 157.307240705 137.832309111 C 157.474233529 138.085938793 157.641226354 138.880583302 157.808219178 139.134066378 C 157.975212003 139.387549454 158.142204827 140.170744907 158.309197652 140.424081376 C 158.476190476 140.677417845 158.643183301 141.447351544 158.810176125 141.700541407 C 158.97716895 141.953731269 159.144161774 142.708560644 159.311154599 142.9616039 C 159.478147423 143.214647155 159.645140248 143.952506217 159.812133072 144.205402866 C 159.979125897 144.458299514 160.146118721 145.177305587 160.313111546 145.430055629 C 160.480104371 145.682805671 160.647097195 146.381066363 160.81409002 146.633669798 C 160.981082844 146.886273233 161.148075669 147.561893605 161.315068493 147.814350434 C 161.482061318 148.066807262 161.649054142 148.717897161 161.816046967 148.970207383 C 161.983039791 149.222517604 162.150032616 149.847199111 162.31702544 150.099362726 C 162.484018265 150.351526341 162.651011089 150.947941298 162.818003914 151.199958306 C 162.984996738 151.451975314 163.151989563 152.018292889 163.318982387 152.27016329 C 163.485975212 152.522033691 163.652968037 153.056457933 163.819960861 153.308181728 C 163.986953686 153.559905523 164.15394651 154.060682871 164.320939335 154.312260059 C 164.487932159 154.563837247 164.654924984 155.029263948 164.821917808 155.280694529 C 164.988910633 155.53212511 165.155903457 155.960554502 165.322896282 156.211838476 C 165.489889106 156.463122451 165.656881931 156.852972075 165.823874755 157.104109442 C 165.99086758 157.35524681 166.157860404 157.705005312 166.324853229 157.955996073 C 166.491846053 158.206986834 166.658838878 158.515220613 166.825831703 158.766064767 C 166.992824527 159.016908921 167.159817352 159.282268485 167.326810176 159.532966032 C 167.493803001 159.78366358 167.660795825 160.004889587 167.82778865 160.255440528 C 167.994781474 160.505991469 168.161774299 160.681920405 168.328767123 160.932324739 C 168.495759948 161.182729073 168.662752772 161.31229854 168.829745597 161.562556267 C 168.996738421 161.812813994 169.163731246 161.895067582 169.33072407 162.145178702 C 169.497716895 162.395289822 169.66470972 162.429381533 169.831702544 162.679346046 C 169.998695369 162.92931056 170.165688193 162.914508764 170.332681018 163.164326671 C 170.499673842 163.414144578 170.666666667 163.349835475 170.833659491 163.599506775 C 171.000652316 163.849178076 171.16764514 163.734868648 171.334637965 163.984393341 C 171.501630789 164.233918034 171.668623614 164.069238464 171.835616438 164.31861655 C 172.002609263 164.567994637 172.169602087 164.35270019 172.336594912 164.60193167 C 172.503587736 164.85116315 172.670580561 164.585135504 172.837573386 164.834220377 C 173.00456621 165.08330525 173.171559035 164.766553262 173.338551859 165.015491528 C 173.505544684 165.264429795 173.672537508 164.897089705 173.839530333 165.145881364 C 174.006523157 165.394673024 174.173515982 164.977008094 174.340508806 165.225653147 C 174.507501631 165.4742982 174.674494455 165.006697791 174.84148728 165.255196237 C 175.008480104 165.503694683 175.175472929 164.986672769 175.342465753 165.235024608 C 175.509458578 165.483376448 175.676451402 164.917569581 175.843444227 165.165774813 C 176.010437052 165.413980046 176.177429876 164.800144783 176.344422701 165.048203409 C 176.511415525 165.296262035 176.67840835 164.635271838 176.845401174 164.883183857 C 177.012393999 165.131095876 177.179386823 164.423937499 177.346379648 164.671702912 C 177.513372472 164.919468324 177.680365297 164.167237714 177.847358121 164.41485652 C 178.014350946 164.662475325 178.18134377 163.866373054 178.348336595 164.113845252 C 178.515329419 164.361317451 178.682322244 163.522643701 178.849315068 163.769969293 C 179.016307893 164.017294885 179.183300718 163.13744402 179.350293542 163.384623006 C 179.517286367 163.631801991 179.684279191 162.712256742 179.851272016 162.95928912 C 180.01826484 163.206321499 180.185257665 162.248646785 180.352250489 162.495532556 C 180.519243314 162.742418328 180.686236138 161.748254759 180.853228963 161.994993924 C 181.020221787 162.241733089 181.187214612 161.212790176 181.354207436 161.459382734 C 181.521200261 161.705975293 181.688193085 160.644024406 181.85518591 160.890470358 C 182.022178735 161.13691631 182.189171559 160.043783419 182.356164384 160.290082764 C 182.523157208 160.536382109 182.690150033 159.413940341 182.857142857 159.660093079 C 183.024135682 159.906245817 183.191128506 158.756407879 183.358121331 159.00241401 C 183.525114155 159.248420141 183.69210698 158.073130639 183.859099804 158.318990163 C 184.026092629 158.564849688 184.193085453 157.366077384 184.360078278 157.611790302 C 184.527071102 157.85750322 184.694063927 156.637233274 184.861056751 156.882799585 C 185.028049576 157.128365896 185.195042401 155.888592119 185.362035225 156.134011824 C 185.52902805 156.379431528 185.696020874 155.122148696 185.863013699 155.367421794 C 186.030006523 155.612694892 186.196999348 154.339891161 186.363992172 154.585017652 C 186.530984997 154.830144143 186.697977821 153.543793593 186.864970646 153.788773477 C 187.03196347 154.033753361 187.198956295 152.735808717 187.365949119 152.980641995 C 187.532941944 153.225475272 187.699934768 151.917860833 187.866927593 152.162547503 C 188.033920417 152.407234174 188.200913242 151.091838984 188.367906067 151.336379047 C 188.534898891 151.580919111 188.701891716 150.259590406 188.86888454 150.503983863 C 189.035877365 150.74837732 189.202870189 149.422914288 189.369863014 149.667161138 C 189.536855838 149.911407988 189.703848663 148.583555858 189.870841487 148.827656102 C 190.037834312 149.071756345 190.204827136 147.74320085 190.371819961 147.987154487 C 190.538812785 148.231108123 190.70580561 146.903470345 190.872798434 147.147277375 C 191.039791259 147.391084405 191.206784083 146.065916037 191.373776908 146.30957646 C 191.540769733 146.553236884 191.707762557 145.232015929 191.874755382 145.475529745 C 192.041748206 145.719043562 192.208741031 144.403170476 192.375733855 144.646537686 C 192.54272668 144.889904895 192.709719504 143.5806992 192.876712329 143.823919803 C 193.043705153 144.067140406 193.210697978 142.765837785 193.377690802 143.008911781 C 193.544683627 143.251985777 193.711676451 141.959735652 193.878669276 142.202663041 C 194.0456621 142.445590431 194.212654925 141.163454044 194.37964775 141.406234827 C 194.546640574 141.649015609 194.713633399 140.377964599 194.880626223 140.620598775 C 195.047619048 140.863232951 195.214611872 139.604148429 195.381604697 139.846635998 C 195.548597521 140.089123567 195.715590346 138.842795702 195.88258317 139.085136665 C 196.049575995 139.327477627 196.216568819 138.094605714 196.383561644 138.33680007 C 196.550554468 138.578994426 196.717547293 137.360187453 196.884540117 137.602235202 C 197.051532942 137.844282951 197.218525766 136.64006064 197.385518591 136.881961782 C 197.552511416 137.123862924 197.71950424 135.934657235 197.886497065 136.176411771 C 198.053489889 136.418166306 198.220482714 135.244323402 198.387475538 135.485931331 C 198.554468363 135.72753926 198.721461187 134.569321895 198.888454012 134.810783217 C 199.055446836 135.052244539 199.222439661 133.909834867 199.389432485 134.151149582 C 199.55642531 134.392464297 199.723418134 133.265967067 199.890410959 133.507135176 C 200.057403783 133.748303284 200.224396608 132.63774941 200.391389432 132.878770912 C 200.558382257 133.119792414 200.725375082 132.025142879 200.892367906 132.266017774 C 201.059360731 132.506892669 201.226353555 131.428042749 201.39334638 131.668771038 C 201.560339204 131.909499326 201.727332029 130.846283094 201.894324853 131.086864776 C 202.061317678 131.327446457 202.228310502 130.279641545 202.395303327 130.52007662 C 202.562296151 130.760511694 202.729288976 129.727844271 202.8962818 129.968132739 C 203.063274625 130.208421207 203.230267449 129.190571149 203.397260274 129.430713011 C 203.564253098 129.670854872 203.731245923 128.667461092 203.898238748 128.907456347 C 204.065231572 129.147451601 204.232224397 128.158117488 204.399217221 128.397966135 C 204.566210046 128.637814783 204.73320287 127.662113732 204.900195695 127.901815773 C 205.067188519 128.141517814 205.234181344 127.178998809 205.401174168 127.418554243 C 205.568166993 127.658109677 205.735159817 126.708302883 205.902152642 126.94771171 C 206.069145466 127.187120538 206.236138291 126.249542876 206.403131115 126.488805096 C 206.57012394 126.728067317 206.737116765 125.802227984 206.904109589 126.041343598 C 207.071102414 126.280459212 207.238095238 125.36586511 207.405088063 125.604834117 C 207.572080887 125.843803125 207.739073712 124.93996417 207.906066536 125.178786571 C 208.073059361 125.417608971 208.240052185 124.524043248 208.40704501 124.762719042 C 208.574037834 125.001394836 208.741030659 124.117633563 208.908023483 124.35616275 C 209.075016308 124.594691937 209.242009132 123.720284221 209.409001957 123.958666801 C 209.575994781 124.197049382 209.742987606 123.331566727 209.909980431 123.5698027 C 210.076973255 123.808038674 210.24396608 122.951079218 210.410958904 123.189168585 C 210.577951729 123.427257952 210.744944553 122.578450413 210.911937378 122.816393173 C 211.078930202 123.054335932 211.245923027 122.213343231 211.412915851 122.451139385 C 211.579908676 122.688935538 211.7469015 121.855458087 211.913894325 122.093107633 C 212.080887149 122.33075718 212.247879974 121.504535811 212.414872798 121.742038751 C 212.581865623 121.979541691 212.748858447 121.160360214 212.915851272 121.397716547 C 213.082844097 121.63507288 213.249836921 120.822760251 213.416829746 121.059969977 C 213.58382257 121.297179703 213.750815395 120.49161179 213.917808219 120.72867491 C 214.084801044 120.965738029 214.251793868 120.166838981 214.418786693 120.403755494 C 214.585779517 120.640672006 214.752772342 119.848415198 214.919765166 120.085185104 C 215.086757991 120.32195501 215.253750815 119.536363572 215.42074364 119.772986871 C 215.587736464 120.00961017 215.754729289 119.230757102 215.921722114 119.467233795 C 216.088714938 119.703710487 216.255707763 118.931718352 216.422700587 119.168048438 C 216.589693412 119.404378523 216.756686236 118.639418727 216.923679061 118.875602206 C 217.090671885 119.111785685 217.25766471 118.35407735 217.424657534 118.590114222 C 217.591650359 118.826151094 217.758643183 118.075959536 217.925636008 118.311849802 C 218.092628832 118.547740067 218.259621657 117.805374885 218.426614481 118.041118544 C 218.593607306 118.276862203 218.76060013 117.542674993 218.927592955 117.778272045 C 219.09458578 118.013869097 219.261578604 117.288250817 219.428571429 117.523701263 C 219.595564253 117.759151708 219.762557078 117.042529695 219.929549902 117.277833534 C 220.096542727 117.513137372 220.263535551 116.80597205 220.430528376 117.041129282 C 220.5975212 117.276286514 220.764514025 116.579067801 220.931506849 116.814078426 C 221.098499674 117.049089051 221.265492498 116.362332497 221.432485323 116.597196516 C 221.599478147 116.832060534 221.766470972 116.156303211 221.933463796 116.391020622 C 222.100456621 116.625738033 222.267449446 115.961534208 222.43444227 116.196105012 C 222.601435095 116.430675817 222.768427919 115.778592434 222.935420744 116.013016631 C 223.102413568 116.247440829 223.269406393 115.608052831 223.436399217 115.842330422 C 223.603392042 116.076608013 223.770384866 115.450493534 223.937377691 115.684624518 C 224.104370515 115.918755503 224.27136334 115.30649096 224.438356164 115.540475337 C 224.605348989 115.774459715 224.772341813 115.176614837 224.939334638 115.410452607 C 225.106327462 115.644290378 225.273320287 115.061423194 225.440313112 115.295114358 C 225.607305936 115.528805522 225.774298761 114.961457356 225.941291585 115.195001913 C 226.10828441 115.428546471 226.275277234 114.87723696 226.442270059 115.110634911 C 226.609262883 115.344032861 226.776255708 114.809255044 226.943248532 115.042506388 C 227.110241357 115.275757732 227.277234181 114.757973227 227.444227006 114.991077964 C 227.61121983 115.224182701 227.778212655 114.723817015 227.945205479 114.956775146 C 228.112198304 115.189733276 228.279191129 114.707171269 228.446183953 114.939982792 C 228.613176778 115.172794316 228.780169602 114.708375855 228.947162427 114.941040772 C 229.114155251 115.173705688 229.281148076 114.727721516 229.4481409 114.960239826 C 229.615133725 115.192758136 229.782126549 114.765445986 229.949119374 114.99781769 C 230.116112198 115.230189393 230.283105023 114.821730371 230.450097847 115.053955467 C 230.617090672 115.286180564 230.784083496 114.896695825 230.951076321 115.128774315 C 231.118069145 115.360852805 231.28506197 114.990400552 231.452054795 115.222332435 C 231.619047619 115.454264318 231.786040444 115.102837128 231.953033268 115.334622405 C 232.120026093 115.566407681 232.287018917 115.233930201 232.454011742 115.465568871 C 232.621004566 115.697207541 232.787997391 115.383534547 232.954990215 115.61502661 C 233.12198304 115.846518672 233.288975864 115.551433521 233.455968689 115.782778977 C 233.622961513 116.014124433 233.789954338 115.737337913 233.956947162 115.968536762 C 234.123939987 116.199735611 234.290932811 115.940885206 234.457925636 116.171937449 C 234.624918461 116.402989691 234.791911285 116.161639258 234.95890411 116.392544894 C 235.125896934 116.62345053 235.292889759 116.399090405 235.459882583 116.629849434 C 235.626875408 116.860608463 235.793868232 116.652655985 235.960861057 116.883268407 C 236.127853881 117.113880829 236.294846706 116.921681299 236.46183953 117.152147115 C 236.628832355 117.38261293 236.795825179 117.205440985 236.962818004 117.435760194 C 237.129810828 117.666079403 237.296803653 117.503140815 237.463796477 117.733313417 C 237.630789302 117.963486019 237.797782127 117.813919901 237.964774951 118.043945896 C 238.131767776 118.273971891 238.2987606 118.136853305 238.465753425 118.366732693 C 238.632746249 118.596612082 238.799739074 118.470955038 238.966731898 118.700687819 C 239.133724723 118.930420601 239.300717547 118.81518143 239.467710372 119.044767605 C 239.634703196 119.27435378 239.801696021 119.168434867 239.968688845 119.397874435 C 240.13568167 119.627314004 240.302674494 119.529567855 240.469667319 119.758860816 C 240.636660144 119.988153778 240.803652968 119.897387415 240.970645793 120.126533769 C 241.137638617 120.355680124 241.304631442 120.270659767 241.471624266 120.499659515 C 241.638617091 120.728659263 241.805609915 120.64811529 241.97260274 120.876968431 C 242.139595564 121.105821572 242.306588389 121.028453724 242.473581213 121.257160259 C 242.640574038 121.485866793 242.807566862 121.410349598 242.974559687 121.638909526 C 243.141552511 121.867469453 243.308545336 121.792457834 243.47553816 122.020871155 C 243.642530985 122.249284476 243.80952381 122.17341953 243.976516634 122.401686244 C 244.143509459 122.629952959 244.310502283 122.551867854 244.477495108 122.779987962 C 244.644487932 123.008108069 244.811480757 122.926434048 244.978473581 123.154407549 C 245.145466406 123.38238105 245.31245923 123.295753492 245.479452055 123.523580386 C 245.646444879 123.75140728 245.813437704 123.658471801 245.980430528 123.886152089 C 246.147423353 124.113832376 246.314416177 124.013250922 246.481409002 124.240784602 C 246.648401826 124.468318283 246.815394651 124.358775198 246.982387476 124.586162271 C 247.1493803 124.813549345 247.316373125 124.693757365 247.483365949 124.920997832 C 247.650358774 125.148238299 247.817351598 125.016944455 247.984344423 125.244038315 C 248.151337247 125.471132175 248.318330072 125.327123558 248.485322896 125.554070811 C 248.652315721 125.781018065 248.819308545 125.623127432 248.98630137 125.849928079 C 249.153294194 126.076728725 249.320287019 125.903839918 249.487279843 126.130493958 C 249.654272668 126.357147998 249.821265492 126.16820113 249.988258317 126.394708563 C 250.155251142 126.621215997 250.322243966 126.415212396 250.489236791 126.641573223 C 250.656229615 126.867934049 250.82322244 126.643940926 250.990215264 126.870155145 C 251.157208089 127.096369365 251.324200913 126.85352417 251.491193738 127.079591783 C 251.658186562 127.305659396 251.825179387 127.04317386 251.992172211 127.269094866 C 252.159165036 127.495015872 252.32615786 127.212179696 252.493150685 127.437954095 C 252.660143509 127.663728494 252.827136334 127.359912665 252.994129159 127.585540457 C 253.161121983 127.81116825 253.328114808 127.485827979 253.495107632 127.711309165 C 253.662100457 127.936790351 253.829093281 127.589467611 253.996086106 127.81480219 C 254.16307893 128.040136769 254.330071755 127.670462404 254.497064579 127.895650377 C 254.664057404 128.120838349 254.831050228 127.728533776 254.998043053 127.953575141 C 255.165035877 128.178616507 255.332028702 127.763494964 255.499021526 127.988389723 C 255.666014351 128.213284482 255.833007175 127.775251848 256.0 128.0"
       transform="translate(0,796.36218)"
       style="fill:#0000ff;fill-opacity:1;stroke:#00ff00;stroke-width:19;stroke-linecap:round;stroke-linejoin:round;stroke-miterlimit:4;stroke-opacity:1;stroke-dasharray:none" />
  </g>
</svg>
